SplineFontDB: 3.0
FontName: SwanHand
FullName: SwanHand
FamilyName: SwanHand
Weight: Regular
Copyright: Copyright (c) 2016, William Seymour
UComments: "2016-5-23: Created with FontForge (http://fontforge.org)"
Version: 001.000
ItalicAngle: 0
UnderlinePosition: -100
UnderlineWidth: 50
Ascent: 800
Descent: 200
InvalidEm: 0
LayerCount: 2
Layer: 0 0 "Back" 1
Layer: 1 0 "Fore" 0
XUID: [1021 547 -597214956 2349]
FSType: 0
OS2Version: 0
OS2_WeightWidthSlopeOnly: 0
OS2_UseTypoMetrics: 1
CreationTime: 1464011425
ModificationTime: 1465309526
PfmFamily: 17
TTFWeight: 400
TTFWidth: 5
LineGap: 90
VLineGap: 0
OS2TypoAscent: 0
OS2TypoAOffset: 1
OS2TypoDescent: 0
OS2TypoDOffset: 1
OS2TypoLinegap: 90
OS2WinAscent: 0
OS2WinAOffset: 1
OS2WinDescent: 0
OS2WinDOffset: 1
HheadAscent: 0
HheadAOffset: 1
HheadDescent: 0
HheadDOffset: 1
OS2Vendor: 'PfEd'
MarkAttachClasses: 1
DEI: 91125
LangName: 1033
Encoding: ISO8859-1
UnicodeInterp: none
NameList: AGL For New Fonts
DisplaySize: -48
AntiAlias: 1
FitToEm: 0
WinInfo: 64 16 4
BeginPrivate: 1
BlueValues 22 [-7 4 581 596 992 998]
EndPrivate
Grid
424 390 m 0
 444.225018282 382.3711348 465.195067924 384.237789656 486 384 c 0
 520.744887904 386.228154882 556.218382906 385.26195373 590 394 c 0
 611.407453074 399.537310868 637.759697183 398 660 398 c 0
 686.568231507 398 711.76010114 391.40777686 738 388 c 0
 792 386 l 1025
128 18 m 0
 157.018823984 32.550187343 160.748154791 40.9544265455 176 54 c 0
 204.226577253 71.7967817425 229.891615708 87.9988130715 250 118 c 0
 265.467134966 132.841469574 278.88157418 149.740454636 296 162 c 0
 309.533953734 179.454899453 325.309358617 191.415788816 338 212 c 0
 358.32136484 233.565415347 368.382887704 264.072292836 390 286 c 0
 401.01372283 300.489078702 408.4435068 309.299704856 422 322 c 0
 455.239203025 353.519538971 487.322509168 381.904241536 504 426 c 0
 520.663851301 460.42054926 545.503019937 490.793860055 558 528 c 0
 573.286150264 565.837083004 604.219130564 589.953269937 626 620 c 0

StartChar: n
Encoding: 110 110 0
Width: 685
VWidth: 0
Flags: W
HStem: -0 21G<108 144.5 414.5 421> 551 41<392.232 531.74> 551 35<400.246 473.11>
VStem: 547 38<408.115 531.101>
LayerCount: 2
Fore
SplineSet
209 495 m 1xd0
 192 515 l 1
 218 534 266 586 284 586 c 0xb0
 285 586 286 586 287 585 c 0
 295 581 302 567 302 558 c 0
 302 557 302 556 302 555 c 0
 299 543 299 527 297 517 c 1
 327 557 367 570 416 582 c 0
 437 587 455 592 474 592 c 0
 499 592 524 583 550 555 c 1
 577 526 585 500 585 477 c 0
 585 452 576 430 572 409 c 0
 555 321 528 272 500 184 c 0
 485 138 466 100 457 66 c 1
 467 78 500 100 508 105 c 0
 510 106 507 91 507 90 c 1
 506 74 l 1
 488 56 484 52 471 40 c 0
 442 12 425 -0 417 -0 c 0
 412 0 404 5 404 14 c 4
 404 52 445.586773658 162.129860069 464 220 c 0
 492 308 518.458984375 354.293945312 536 442 c 0
 539 457 547 471 547 482 c 0
 547 501 544 516 538 529 c 1
 527 540 508 551 479 551 c 0
 468 551 455.875359929 549.5319098 442 546 c 0
 387 532 348.35533005 518.803299674 320 468 c 0
 248 339 159 0 130 0 c 0
 128 0 109 -2 108 0 c 0
 103 10 100 10 100 12 c 0
 100 14 103 17 108 35 c 0
 166 224 227 352 266 542 c 1
 249 527 226 505 209 495 c 1xd0
EndSplineSet
Validated: 1
EndChar

StartChar: o
Encoding: 111 111 1
Width: 690
VWidth: 0
Flags: W
HStem: 4 37<206.733 337.253> 557 39<453 504.263>
VStem: 100 37<116.486 284.738> 563 27<359.638 491.272>
LayerCount: 2
Fore
SplineSet
306 544 m 5
 302 550 l 4
 288 568 l 5
 310 577 330 577 348 583 c 4
 355 585 363 587 372 589 c 4
 396 592 416 596 435 596 c 4
 451 596 467 594 487 585 c 4
 506 577 536 564 566 519 c 4
 578 501 586 489 588 474 c 4
 589 464 590 454 590 445 c 4
 590 414 583 388 575 352 c 4
 565 302 555 274 537 226 c 4
 518 176 510 154 479 113 c 4
 448 73 427 53 385 36 c 4
 348 20 320 4 285 4 c 4
 277 4 267 5 258 7 c 4
 222 15 185 20 140 82 c 4
 132 92 126 101 121 111 c 5
 105 141 100 165 100 190 c 4
 100 214 105 238 110 267 c 4
 119 324 136 354 165 400 c 4
 198 454 219 485 267 520 c 4
 280 529 289 535 303 542 c 5
 324 550 306 544 306 544 c 5
453 557 m 5
 453 557 455 556 455 555 c 4
 471 539 478 524 479 522 c 4
 480 518 480 515 480 512 c 4
 480 505 479 499 479 493 c 4
 479 491 479 490 479 488 c 5
 446 523 l 5
 446 527 446 535 446 536 c 5
 439 536 434 535 427 533 c 4
 415 530 404 528 393 525 c 4
 359 516 333 507 298 482 c 4
 251 447 230 416 197 362 c 4
 167 316 151 287 142 230 c 4
 139 211 137 194 137 179 c 4
 137 148 144 122 158 95 c 5
 161 90 165 85 166 84 c 4
 169 79 184 56 229 45 c 4
 241 42 253 41 263 41 c 4
 293 41 318 51 352 65 c 4
 394 82 438 112 465 154 c 4
 498 206 503 224 522 274 c 4
 539 322 547 335 556 386 c 4
 560 413 563 427 563 442 c 4
 563 453 561 465 558 484 c 4
 556 495 541 509 540 512 c 5
 531 525 526 535 511 542 c 4
 491 550 476 557 459 557 c 4
 457 557 455 557 453 557 c 5
EndSplineSet
Validated: 1
EndChar

StartChar: a
Encoding: 97 97 2
Width: 738
VWidth: 0
Flags: W
HStem: 13.6555 36.5575<177.48 267.587> 548 41<437.306 523.676>
VStem: 100.308 35.6455<92.8964 230.66> 413.25 40.8033<57.8695 117>
LayerCount: 2
Back
SplineSet
550.125 540 m 0
 522.331054688 582.280273438 481.984375 571.637695312 448.125 561 c 0
 423.763671875 549.05078125 397.576171875 540.998046875 373.125 525 c 0
 333.686523438 493.569335938 290.354492188 464.583984375 256.125 429 c 0
 215.395507812 381.245117188 167.822265625 329.662109375 148.125 270 c 0
 133.48046875 231.15625 116.899414062 191.588867188 121.125 147 c 0
 109.3125 69.1875 187.594726562 15.7431640625 259.125 45 c 0
 304.970703125 60.9638671875 341.188476562 85.4921875 376.125 120 c 0
 418.56640625 158.01171875 456.069335938 201.983398438 481.125 255 c 0
 498.1640625 299.493164062 519.079101562 346.405273438 529.125 396 c 0
 556.026367188 500.90234375 539.079101562 546.48046875 505.125 423 c 0
 472.2578125 350.31640625 451.063476562 269.731445312 445.125 189 c 0
 442.370117188 151.556640625 433.125 116.860351562 433.125 78 c 0
 433.125 50.708984375 441.64453125 39 466.125 39 c 0
 520.88671875 39 579.360351562 102.931640625 625.125 129 c 0
 655.125 156 l 1025
EndSplineSet
Fore
SplineSet
426 214 m 1
 429 246 453 272 468 306 c 0
 486 346 489 363 502 403 c 0
 511 430 515 452 521 478 c 0
 524.696771953 490.938701834 522.41461515 522.668322614 531.519965122 522.668322614 c 0
 532.266832261 522.668322614 533.090315858 522.454842071 534 522 c 0
 540 519 545 524 549 506 c 0
 552.5 492 553.5 482.5 553.5 475.875 c 0
 553.5 469.25 552.5 465.5 552 463 c 0
 550 431 546 413 539 382 c 0
 530 338 524 312 504 272 c 0
 486 235 480 206 462 178 c 0
 461 170 460 162 459 152 c 0
 458 143 457 135 455 128 c 0
 454.322875656 122.131589015 454.053304536 117.180172785 454.053304536 112.69730947 c 0
 454.053304536 97.3188429478 457.225708115 87.4544646701 458 65 c 1
 465 66 460 55 467 58 c 0
 502 72 519 85 550 106 c 0
 584 129 601 145 634 170 c 1
 644 164 l 1
 611 139 619 93 585 70 c 0
 554 49 537 36 502 22 c 0
 494.116432289 18.9678585726 486.968375108 16.671227676 479.663759678 16.671227676 c 0
 474.923067188 16.671227676 470.116432289 17.6385697129 465 20 c 1
 465 20 465.132231405 19.7685950413 465.132231405 19.6123215627 c 0
 465.132231405 19.5326527305 465.097864458 19.4725105729 464.994089754 19.4725105729 c 0
 464.181853133 19.4725105729 459.117647059 23.1568627451 433 50 c 0
 415.956521739 67.0434782609 412.621928166 72.6011342155 412.621928166 76.370674776 c 0
 412.621928166 78.7939508507 414 80.4782608696 414 84 c 0
 413.5 90 413.25 95.75 413.25 101.25 c 0
 413.25 106.75 413.5 112 414 117 c 1
 389 89 368 73 333 50 c 0
 302 30 282 20 246 15 c 0
 240.374109685 14.0998575496 235.203988612 13.6554843416 230.318696264 13.6554843416 c 0
 213.495014235 13.6554843416 200.049216523 18.9254629639 183 29 c 0
 178 32 179 27 140 67 c 0
 114 94 116 96 112 109 c 0
 104.081208782 132.756373654 100.308351736 151.330329592 100.308351736 172.929564594 c 0
 100.308351736 181.333846351 100.879560443 190.196153875 102 200 c 0
 107 243 117 267 137 306 c 0
 160 351 177 374 209 413 c 0
 239 450 258 470 295 500 c 0
 328 526 348 537 387 556 c 0
 416 570 440 589 472 589 c 0
 501 589 514 571 541 560 c 1
 569 519 l 1
 542 530 529 548 500 548 c 0
 468 548 451 534 422 520 c 0
 384 501 363 490 330 464 c 0
 293 434 274 414 244 377 c 0
 212 338 195 315 172 270 c 0
 152 231 142 207 137 164 c 0
 136.28546882 157.747852177 135.953853746 152.133897862 135.953853746 146.941532704 c 0
 135.953853746 123.066641994 142.964960744 108.105117767 152 81 c 0
 154 77 159 73 160 70 c 0
 178.172793719 60.480917576 185.112579562 50.2129679602 202.204943097 50.2129679602 c 0
 204.864063004 50.2129679602 207.768907107 50.4614845178 211 51 c 0
 247 56 267 66 298 86 c 0
 338 112 360 130 391 167 c 0
 396 173 400 178 405 184 c 0
 413 194 420 204 426 214 c 1
EndSplineSet
Validated: 1
EndChar

StartChar: d
Encoding: 100 100 3
Width: 845
VWidth: 0
Flags: W
HStem: -7 38<161.184 269.032> 501 42<432.282 531.887> 521 34<346.369 508.236> 972.16 20G<715.152 724.632>
VStem: 100 35<55.3158 207.431> 367 39<58.1399 66>
LayerCount: 2
Back
SplineSet
782.626953125 547 m 1
 662.626953125 571 l 0
 651.068359375 567.193359375 637.827148438 563.614257812 626.626953125 559 c 0
 592.447265625 543.733398438 554.375 528.80859375 533.626953125 502 c 0
 515.977539062 479.194335938 493.85546875 450.380859375 473.626953125 424 c 0
 473.626953125 423.999023438 473.625976562 423.997070312 470.626953125 415 c 0
 437.626953125 346 l 0
 413.626953125 277 l 0
 392.626953125 211 l 0
 380.626953125 145 l 0
 380.626953125 49 l 0
 396.280273438 16.2021484375 432.9453125 -7.353515625 473.626953125 -2 c 0
 510.854492188 2.8994140625 527.734375 8.7587890625 560.626953125 22 c 0
 611.626953125 76 l 0
 653.626953125 136 l 0
 716.626953125 253 l 0
 725.626953125 268 l 0
 773.626953125 394 l 0
 820.626953125 565 l 0
 854.626953125 711 l 0
 862.626953125 741 l 0
 892.626953125 852 l 0
 910.626953125 922 l 0
 941.626953125 1078 l 0
 960.59765625 1202.14941406 933.4453125 1072.67089844 911.626953125 1015 c 0
 884.626953125 910 l 0
 875.626953125 880 l 0
 839.626953125 769 l 0
 779.626953125 544 l 0
 752.626953125 451 l 0
 713.626953125 337 l 0
 683.626953125 244 l 0
 665.626953125 172 l 0
 650.626953125 67 l 0
 649.591796875 55.9609375 647.626953125 45.5244140625 647.626953125 34 c 0
 647.626953125 16.55078125 657.625976562 7 674.626953125 7 c 0
 705.780273438 7 720.33984375 25.892578125 746.626953125 37 c 0
 815.626953125 103 l 1025
EndSplineSet
Fore
SplineSet
532 501 m 1xdc
 531 501 530 501 530 501 c 0xdc
 502 501 484 517 453 520 c 0
 445 521 438 521 432 521 c 0xbc
 415 521 401 519 383 514 c 0
 349 505 326 502 299 480 c 0
 262 450 249 424 225 384 c 0
 204 349 198 326 183 288 c 0
 166 243 152 218 143 170 c 0
 138 145 135 126 135 106 c 0
 135 93 136 80 139 65 c 0
 142 51 150 47 154 37 c 1
 168 32 179 31 192 31 c 0
 199 31 207 31 216 32 c 0
 233 34 244 34 258 43 c 0
 292 63 313 75 338 105 c 0
 375 149 388 180 414 230 c 0
 459 318 484 366 518 458 c 0
 523 474 528 487 532 501 c 1xdc
504 544 m 0
 506 543 509 543 512 543 c 0xdc
 528 543 555 551 558 561 c 0
 574 604 592 645 605 690 c 0
 620 741 626 752 642 802 c 0
 658 852 654 843 669 894 c 0
 679 928 675 922 684 954 c 0
 688 968 692 992 704 992 c 0
 704.799804688 992 711.360351562 992.16015625 718.944335938 992.16015625 c 0
 730.3203125 992.16015625 744 991.799804688 744 990 c 0
 744 989 729 967 729 966 c 0
 723 937 716 935 710 906 c 0
 698 850 700 865 686 810 c 0
 667 734 645 694 624 618 c 0
 608 560 584 520 568 471 c 0
 564 457 559 442 553 426 c 0
 519 334 494 285 449 198 c 0
 433 166 422 142 406 118 c 1
 407 118 l 1
 406 110 405 102 405 94 c 0
 405 85 406 76 406 66 c 0
 406 61 405 56 405 51 c 0
 405 47 425 56 424 53 c 1
 435 54 421 45 432 50 c 0
 450 58 460 63 475 74 c 0
 501 93 512 106 536 127 c 1
 531 97 l 1
 520 71 529 69 510 41 c 0
 499 26 485 26 467 17 c 0
 456 12 448 9 435 7 c 0
 427 6 422 7 415 11 c 0
 406 16 370 51 368 58 c 0
 367 61 367 63 367 66 c 1
 344 40 324 29 293 10 c 0
 279 2 268 2 251 0 c 0
 233 -2 218 -7 203 -7 c 0
 194 -7 186 -5 177 0 c 0
 174 2 177 -4 141 30 c 0
 101 67 108 75 104 98 c 0
 101 113 100 126 100 138 c 0
 100 158 103 178 108 203 c 0
 117 251 131 275 148 320 c 0
 163 358 169 381 190 416 c 0
 214 457 227 482 264 513 c 0
 291 535 313 538 348 547 c 0
 369 552 380 555 398 555 c 0xbc
 402 555 407 554 413 554 c 0
 448 551 482 549 504 544 c 0
EndSplineSet
Validated: 1
EndChar

StartChar: h
Encoding: 104 104 4
Width: 663
VWidth: 0
Flags: W
HStem: 0 21G<125.479 134.979 415.468 418.708> 567.889 31.7988<360.925 483.895> 978 20G<408.21 413.979>
VStem: 99.9795 32<10.1939 33.9531> 522.575 40.4248<431.769 552.028>
LayerCount: 2
Back
SplineSet
493.72265625 990 m 4
 463.9921875 971.690429688 454.08984375 950.854492188 433.72265625 930 c 4
 388.72265625 837 l 4
 358.72265625 756 l 4
 310.72265625 600 l 4
 308.065429688 579.388671875 299.151367188 560.245117188 292.72265625 540 c 4
 287.302734375 522.93359375 280.302734375 505.385742188 274.72265625 492 c 4
 247.72265625 414 l 4
 211.72265625 303 l 4
 184.72265625 228 l 4
 157.72265625 171 l 4
 151.72265625 153 l 4
 130.72265625 84 l 4
 112.72265625 27 l 4
 139.72265625 96 l 4
 142.72265625 111 l 4
 175.72265625 210 l 4
 217.72265625 318 l 4
 241.72265625 390 l 4
 249.642578125 406.744140625 251.951171875 425.6875 262.72265625 441 c 4
 270.122070312 466.9375 290.84765625 485.533203125 301.72265625 510 c 4
 330.630859375 541.763671875 361.713867188 576.520507812 403.72265625 582 c 4
 468.826171875 590.715820312 536.944335938 556.80078125 529.72265625 492 c 4
 528.91796875 484.784179688 523.17578125 426.948242188 517.72265625 429 c 4
 493.72265625 369 l 4
 466.72265625 297 l 4
 439.72265625 222 l 4
 412.72265625 150 l 4
 388.72265625 81 l 4
 383.502929688 62.5576171875 373.72265625 44.533203125 373.72265625 27 c 4
 373.72265625 21.9873046875 378.48828125 24 382.72265625 24 c 4
 394.108398438 24 407.661132812 41.9541015625 415.72265625 48 c 4
 496.72265625 129 l 1029
EndSplineSet
Fore
SplineSet
204.979492188 231 m 1
 204.979492188 230 l 2
 198.979492188 208 192.979492188 186 185.979492188 160 c 0
 170.979492188 104 137.979492188 1 131.979492188 0 c 0
 130.979492188 0 l 0
 119.979492188 7 100.979492188 19 99.9794921875 31 c 0
 99.9794921875 32 100.979492188 33 100.979492188 34 c 0
 127.979492188 129 143.979492188 174 164.979492188 261 c 0
 177.979492188 313 192.979492188 359 208.979492188 422 c 0
 239.979492188 542 263.334960938 613.916992188 290.979492188 733 c 0
 303.979492188 789 310.979492188 822 324.979492188 877 c 0
 335.057617188 916.590820312 335.979492188 935 344.979492188 972 c 0
 352.213867188 1001.74316406 398.979492188 993 428.979492188 998 c 1
 401.979492188 972 l 2
 387.297851562 957.862304688 388.255859375 965.104492188 380.979492188 936 c 0
 371.979492188 900 369.057617188 884.590820312 358.979492188 845 c 0
 344.979492188 790 340.286132812 755.184570312 325.979492188 700 c 0
 311.979492188 646 299.979492188 602 288.979492188 560 c 1
 297.979492188 571 309.979492188 580 324.979492188 589 c 0
 335.979492188 595 345.979492188 598 355.979492188 599 c 0
 359.729492188 599.5 363.541992188 599.6875 367.463867188 599.6875 c 0
 379.229492188 599.6875 391.979492188 598 406.979492188 598 c 0
 436.979492188 597 452.979492188 597 481.979492188 585 c 0
 522.979492188 571 554.979492188 556 559.979492188 532 c 0
 560.979492188 528 560.979492188 523 561.979492188 518 c 0
 562.680664062 511.219726562 563 503.947265625 563 496.4765625 c 0
 563 471.99609375 559.576171875 445.388671875 554.979492188 427 c 0
 536.979492188 361 521.979492188 324 500.979492188 258 c 0
 475.979492188 181 457.979492188 135 438.979492188 63 c 1
 442.979492188 69 448.979492188 74 454.979492188 80 c 2
 483.979492188 112 l 1
 491.979492188 81 l 1
 479.979492188 44 484.979492188 40 456.979492188 20 c 0
 436.979492188 6 449.979492188 15 418.979492188 4 c 0
 418.874023438 3.982421875 418.764648438 3.9736328125 418.651367188 3.9736328125 c 0
 412.284179688 3.9736328125 392.979492188 31 392.979492188 31 c 2
 385.979492188 38 382.979492188 44 381.979492188 50 c 0
 380.979492188 61 387.979492188 70 389.979492188 79 c 0
 411.979492188 162 429.979492188 208 455.979492188 290 c 0
 476.979492188 356 491.979492188 392 509.979492188 458 c 0
 515.159179688 479.583007812 522.575195312 495.203125 522.575195312 513.870117188 c 0
 522.575195312 516.825195312 522.389648438 519.856445312 521.979492188 523 c 0
 521.979492188 526 520.979492188 529 519.979492188 532 c 0
 517.979492188 544 511.979492188 545 499.979492188 554 c 1
 483.979492188 559 472.979492188 566 450.979492188 567 c 0
 437.646484375 567 426.090820312 567.888671875 415.423828125 567.888671875 c 0
 410.090820312 567.888671875 404.979492188 567.666992188 399.979492188 567 c 0
 389.979492188 566 380.979492188 564 369.979492188 558 c 0
 335.979492188 539 321.979492188 518 304.979492188 486 c 0
 285.979492188 449 270.979492188 418 258.979492188 388 c 0
 243.979492188 349 232.979492188 312 215.979492188 262 c 0
 211.979492188 252 208.979492188 241 204.979492188 232 c 2
 204.979492188 231 l 1
EndSplineSet
Validated: 1
EndChar

StartChar: e
Encoding: 101 101 5
Width: 700
VWidth: 0
Flags: W
HStem: 2.21115 21G<251.864 259.287> 547.858 33.3384<363.157 518.079>
VStem: 100.367 37.0026<109.485 274.345> 570.531 33.5942<430.316 489.105>
LayerCount: 2
Back
SplineSet
263.044921875 272 m 0
 299.640625 275.756835938 354.200195312 278.6015625 381.044921875 288 c 0
 405.39453125 296.525390625 432.360351562 301.2421875 453.044921875 312 c 0
 501.798828125 334.944335938 542.079101562 364.626953125 564.044921875 411 c 0
 573.520507812 431.00390625 582.044921875 448.78515625 582.044921875 480 c 0
 583.815429688 538.719726562 532.743164062 556.13671875 480.044921875 561 c 0
 440.016601562 564.694335938 405.807617188 576.5546875 380.044921875 562.83203125 c 0
 355.314453125 549.659179688 340.916015625 539.342773438 317.044921875 524.512695312 c 0
 293.098632812 509.635742188 259.748046875 495.278320312 243.044921875 470.758789062 c 0
 236.780273438 461.5625 214.533203125 437.88671875 208.1875 427 c 0
 200.373046875 413.59375 188.124023438 394.4921875 176.280273438 382 c 0
 144.466796875 322 l 0
 122.325195312 234 l 0
 116.043945312 139 l 0
 163.58984375 59 l 0
 236.044921875 20.234375 l 0
 357.044921875 45 l 0
 414.044921875 72 l 0
 420.044921875 78 l 0
 490.044921875 123 l 0
 506.044921875 150 l 1025
EndSplineSet
Fore
SplineSet
300 255 m 1
 205 288 l 1
 249 293 316 292 359 303 c 0
 400 313 423 322 460 342 c 0
 492 360 511 372 535 400 c 0
 554 423 558 440 566 469 c 0
 568.704164999 479.816659995 570.530828997 484.19831265 570.530828997 489.105486612 c 0
 570.530828997 493.27167534 569.214169002 497.816659995 566 507 c 0
 566 508 555 520 555 521 c 1
 544 527 540 533 525 536 c 0
 503 541 490 542 467 544 c 0
 449.483243692 545.297537504 436.596397215 547.85777769 422.605046269 547.85777769 c 0
 415.030390993 547.85777769 407.132012444 547.107387487 398 545 c 0
 378 540 369 535 351 525 c 0
 330 512 319 500 300 485 c 0
 278 468 268 455 250 435 c 0
 230 412 217 400 201 374 c 0
 183 345 175 327 163 295 c 0
 151 262 144 243 139 208 c 0
 137.937742252 198.705244702 137.369155795 190.186258577 137.369155795 182.087194592 c 0
 137.369155795 159.688711259 141.717902119 140.501938014 152 117 c 0
 164 91 171 91 186 72 c 1
 194 66 217 49 227 46 c 0
 246 41 229 42 248 44 c 0
 275 47 284 46 309 55 c 0
 350 70 372 80 411 100 c 0
 435 112 448 120 469 137 c 0
 479 145 482 153 490 164 c 1
 506 149 l 1
 506 145.571428571 506.163265306 141.163265306 506.163265306 136.428571429 c 0
 506.163265306 124.591836735 505.142857143 110.714285714 498 105 c 0
 477 88 469 78 445 66 c 0
 406 46 385 34 344 19 c 0
 319 10 305 7 278 4 c 0
 269.502941686 3.105572809 262.605883371 2.211145618 255.96718427 2.211145618 c 0
 247.761300899 2.211145618 239.950155281 3.577708764 230 8 c 0
 206 18 157 52 134 80 c 1
 116 103 111 126 105 154 c 0
 101.656854249 170.238136502 100.366557715 183.51104636 100.366557715 196.7600042 c 0
 100.366557715 211.252195506 101.910369 225.715728753 104 244 c 0
 109 279 116 298 128 331 c 0
 140 363 148 381 165 410 c 0
 182 436 195 448 215 471 c 0
 233 491 243 504 265 521 c 0
 284 536 296 541 318 553 c 0
 336 564 345 571 365 576 c 0
 381.483339502 579.803847577 393.143593539 581.196152423 406.350998904 581.196152423 c 0
 413.976297946 581.196152423 422.117314098 580.732050808 432 580 c 0
 455 578 468 577 490 572 c 0
 508 568 518 567 533 557 c 0
 549 546 592 503 598 486 c 0
 602.083333333 474.333333333 604.125 465.048611111 604.125 455.366898148 c 0
 604.125 448.451388889 603.083333333 441.333333333 601 433 c 0
 594 404 589 387 570 364 c 0
 546 336 527 324 495 306 c 0
 458 286 435 277 394 267 c 0
 351 257 344 260 300 255 c 1
EndSplineSet
Validated: 1
EndChar

StartChar: s
Encoding: 115 115 6
Width: 687
VWidth: 0
Flags: W
HStem: -18.2414 36<230.174 373.598> 545.09 36.4397<392.008 528.671>
VStem: 519.25 36<133.774 242.594>
LayerCount: 2
Back
SplineSet
567.026367188 503 m 0
 573.858398438 556.028320312 497.67578125 563.64453125 457.026367188 563 c 0
 376.993164062 561.731445312 258.076171875 500.529296875 275.026367188 409 c 4
 280.026367188 382 315.74609375 380.520507812 335.026367188 369 c 4
 417.026367188 320 539.026367188 311.6640625 539.026367188 181 c 0
 539.026367188 73.9853515625 396.913085938 3 305.026367188 3 c 0
 219.91015625 -0.009765625 130.397460938 60.0234375 117.026367188 147 c 1024
EndSplineSet
Fore
SplineSet
571 493 m 0
 561 502 552 513 551 518 c 0
 550 524 549 532 549 533 c 1
 536 540 529 541 512 543 c 0
 500.875388203 544.236067977 492.042572473 545.090169944 482.66873708 545.090169944 c 0
 476.875388203 545.090169944 470.875388203 544.763932023 464 544 c 0
 435 540 418 539 392 527 c 0
 350 508 331 493 305 455 c 0
 294 440 293 429 290 410 c 1
 289 404 289 399 290 397 c 1
 320 380 334 376 366 361 c 0
 394 349 412 345 443 329 c 0
 466 316 491 300 520 266 c 1
 545 238 546 224 551 207 c 1
 554.062870566 195.973665961 555.249505911 187.574061232 555.249505911 178.583053057 c 0
 555.249505911 172.896640198 554.774851773 166.973665961 554 160 c 1
 552 138 550 125 541 106 c 0
 531 84 521 74 505 57 c 0
 487 38 476 27 453 15 c 0
 431 3 416 2 392 -4 c 0
 366 -11 351 -17 324 -18 c 0
 320.042190121 -18.1583123952 316.309945571 -18.241436347 312.731846777 -18.241436347 c 0
 293.708438024 -18.241436347 279.042190121 -15.8918132338 258 -10 c 1
 235 -4 220 3 197 18 c 0
 171 36 149 60 133 81 c 1
 115 104 113 115 106 130 c 1
 102 142 102 149 100 160 c 0
 99 165 107 161 116 152 c 0
 126 144 135 133 136 128 c 0
 138 117 138 110 141 102 c 1
 149 83 155 76 159 71 c 1
 171 56 170 58 182 50 c 0
 197 39 204 32 227 26 c 1
 247.200502516 20.1081867662 260.31662479 17.758563653 278.870320401 17.758563653 c 0
 282.3600712 17.758563653 286.042190121 17.8416876048 290 18 c 0
 317 19 332 25 358 32 c 0
 382 38 397 39 419 51 c 0
 440 63 451 74 469 93 c 0
 485 110 495 120 505 140 c 0
 514 159 516 172 518 194 c 0
 518.774851773 200.973665961 519.249505911 206.596442563 519.249505911 211.798764486 c 0
 519.249505911 220.024357685 518.062870566 227.198814188 515 237 c 1
 512 258 501 267 499 269 c 1
 492 277 493 280 468 293 c 0
 442 307 424 313 394 327 c 0
 364 340 345 347 313 365 c 0
 308 368 278 385 260 413 c 0
 260 413 260 414 259 414 c 0
 252 427 252 434 254 444 c 1
 257 463 258 475 269 491 c 0
 295 529 316 544 358 563 c 0
 384 575 401 576 430 580 c 0
 436.615800423 581.102633404 442.691245103 581.529822128 448.623543568 581.529822128 c 0
 458.831600847 581.529822128 468.615800423 580.264911064 480 579 c 0
 497 577 507 575 524 566 c 1
 540 558 563 537 577 518 c 0
 577 517 578 516 579 515 c 0
 589 499 585 494 587 486 c 0
 588 481 581 485 571 493 c 0
EndSplineSet
Validated: 1
EndChar

StartChar: i
Encoding: 105 105 7
Width: 470
VWidth: 0
Flags: W
HStem: 6 30<137.418 176.113> 567 80<308.101 353.386>
VStem: 100 36.7399<36.0045 135.562> 293 76<582.222 632.963>
LayerCount: 2
Fore
SplineSet
369 621 m 0
 366 600 347 576 326 569 c 0
 322 568 318 567 315 567 c 0
 303 566 294 575 293 588 c 0
 293 589 294 592 294 595 c 0
 297 616 316 640 337 647 c 0
 341 648 345 649 348 649 c 0
 360 650 369 642 370 628 c 0
 370 625 369 624 369 621 c 0
181 470 m 0
 169 476 151 481 154 482 c 0
 184 493 215 503 245 515 c 0
 250 517 251 524 269 513 c 0
 298 498 299 484 299 484 c 1
 299.064037816 482.527130239 299.095268897 481.12397479 299.095268897 479.782130165 c 0
 299.095268897 460.170033584 292.423659659 453.655205871 284 434 c 0
 258 373 236 341 209 280 c 0
 189 235 181 207 165 161 c 0
 154 132 145 117 141 88 c 0
 138.531373033 74.011113856 136.739870411 64.7620981232 136.739870411 54.1238722745 c 0
 136.739870411 51.8339895115 136.822875656 49.4797408225 137 47 c 0
 137 44 137 42 137 39 c 2
 137 39 137 36 137 36 c 1
 142 36 148 37 154 39 c 0
 169 43 177 52 189 61 c 0
 217 80 227 93 254 113 c 0
 257 113 255 109 260 98 c 0
 264 88 261 83 261 80 c 0
 253 52 252 51 225 31 c 0
 213 22 204 14 189 10 c 0
 182 8 176 6 170 6 c 0
 162 6 153 8 139 16 c 0
 122 26 109 41 107 44 c 0
 100 53 102 59 101 65 c 0
 101 68 101 71 100 73 c 0
 100 89 102 99 105 116 c 0
 109 145 118 160 129 189 c 0
 145 235 153 262 173 308 c 0
 200 368 221 401 248 462 c 0
 251 468 252 472 255 477 c 1
 240 471 229 467 209 459 c 0
 205 459 191 465 181 470 c 0
EndSplineSet
Validated: 1
EndChar

StartChar: j
Encoding: 106 106 8
Width: 618
VWidth: 0
Flags: W
HStem: 4.87613 33.1239<154.182 194.661> 575.878 20G<395.513 400.77> 645 92<455.553 497.801>
VStem: 99.72 36.28<56.6663 141.738> 438 80<665.264 720.041>
LayerCount: 2
Back
SplineSet
94.3974609375 534 m 0
 123.2265625 540.89453125 137.013671875 548.342773438 158.397460938 556 c 0
 166.857421875 559.029296875 181.551757812 564 190.397460938 564 c 0
 200.649414062 566.676757812 194.255859375 552.282226562 196.397460938 546 c 0
 193.744140625 519.389648438 185.73828125 499.64453125 174.397460938 476 c 0
 160.465820312 444.665039062 144.377929688 407.80859375 138.397460938 372 c 0
 128.875976562 349.354492188 119.717773438 327.02734375 108.397460938 306 c 0
 99.0263671875 289.713867188 90.7490234375 274.6015625 84.3974609375 258 c 0
 71.2314453125 236.711914062 66.1572265625 212.595703125 58.3974609375 190 c 0
 50.1494140625 173.725585938 44.8046875 156.198242188 38.3974609375 140 c 0
 34.392578125 129.876953125 30.3720703125 119.80859375 26.3974609375 110 c 0
 10.3974609375 66 l 0
 -7.6025390625 6 l 4
 -30.6025390625 -32 l 0
 -42.974609375 -37.2490234375 -46.369140625 -46 -63.6025390625 -46 c 0
 -102.801757812 -46 -120.602539062 10 -120.602539062 36 c 0
 -120.602539062 49.998046875 -122.602539062 67 -121.602539062 81 c 1024
EndSplineSet
Fore
SplineSet
517 705 m 0
 513 681 492 654 470 647 c 0
 466 646 462 645 459 645 c 0
 446 645 438 655 438 670 c 0
 438 672 438 675 438 678 c 0
 442 703 463 730 485 737 c 0
 489 738 493 739 496 739 c 0
 509 739 518 729 518 713 c 0
 518 710 517 708 517 705 c 0
334 551 m 0
 327 555 309 564 311 565 c 0
 342 576 358 584 389 592 c 0
 390.964956139 592.491239035 392.929912279 595.878267542 398.095549276 595.878267542 c 0
 403.445438592 595.878267542 412.228410081 592.245307024 428 578 c 0
 430 576 432 574 433 572 c 0
 446.589484596 557.792811559 449.495344059 550.072109805 449.495344059 544.359787233 c 0
 449.495344059 540.824437776 448.382296155 538.058369238 448 535 c 1
 438 498 427 480 413 445 c 0
 390 391 376 361 353 307 c 0
 334 264 325 239 307 195 c 0
 288 151 277 126 257 82 c 0
 246 58 244 41 227 20 c 1
 220 10 211 6 198 5 c 0
 196.766894978 4.91779299852 195.554063929 4.87613394359 194.356506865 4.87613394359 c 0
 180.986484018 4.87613394359 169.520273973 10.0686910193 153 22 c 0
 123 43 111 66 107 76 c 1
 100 91 101 102 100 116 c 0
 99.8 118.6 99.72 121 99.72 123.28 c 0
 99.72 132.4 101 139.6 101 150 c 0
 101 153 109 149 119 141 c 0
 128 133 136 123 136 119 c 0
 136 108.6 134.72 101.4 134.72 92.792 c 0
 134.72 90.64 134.8 88.4 135 86 c 0
 136 71 136 61 141 49 c 1
 142 46 143 45 144 42 c 1
 147 41 155 38 166 38 c 0
 178 39 186 42 193 52 c 1
 209 73 211 89 222 113 c 0
 242 158 253 182 272 227 c 0
 291 270 299 295 318 339 c 0
 341 392 356 422 378 476 c 0
 391 508 401 525 410 556 c 1
 387 549 388 549 362 539 c 0
 360 538 346 544 334 551 c 0
EndSplineSet
Validated: 1
EndChar

StartChar: f
Encoding: 102 102 9
Width: 862
VWidth: 0
Flags: W
HStem: -59 32<108.436 221.188> 494 50<316.677 419.727> 942 55<657.824 730.114>
LayerCount: 2
Back
SplineSet
642 553 m 1
 320 492 l 1053
631 606 m 1
 308 543 l 1049
EndSplineSet
Fore
SplineSet
754 951 m 0
 762 937 764 924 760 926 c 0
 738 932 728 941 708 942 c 0
 707 942 705 942 704 942 c 0
 686 942 678 932 661 922 c 0
 638 908 624 904 607 880 c 0
 583 846 577 822 564 781 c 0
 543 718 534.482443733 681.170996797 520 616 c 0
 518 607 514 590 512 583 c 1
 541 586 593 600 630 606 c 0
 632.961316433 606.480213476 632 592 635 576 c 0
 637.971563339 560.151662191 642.943746462 554.578235912 640 554 c 0
 584 543 537 532 492 524 c 1
 482 495 475.965956721 479.010103934 465 442 c 0
 441 361 409 212 388 131 c 0
 366 47 381 98 355 21 c 0
 351 7 351 13 346 8 c 0
 337 -2 346 5 331 -6 c 0
 311 -20 265 -43 243 -51 c 0
 228 -58 226 -59 220 -59 c 0
 218 -59 216 -59 212 -59 c 0
 210 -59 207 -59 204 -59 c 0
 173 -62 181 -64 149 -64 c 0
 146 -64 117 -62 108 -48 c 0
 100 -34 99 -27 102 -27 c 0
 133 -27 126 -26 157 -24 c 0
 181 -22 195 -23 217 -13 c 0
 240 -3 252 1 273 14 c 0
 296 29 278 16 299 35 c 0
 317 51 306 32 321 71 c 0
 352 151 355 202 376 286 c 0
 398 367 405.372946089 413.118838266 432 493 c 0
 437 508 435 502 439 514 c 1
 404 513 369.01171875 494 325 494 c 0
 322 494 321 500 316 518 c 0
 311.450010797 534.379961132 308.046518826 543.472406718 311 544 c 4
 377.144443105 555.815671673 404.675759299 564.622152494 453 571 c 5
 460 595 478.28885801 637.198724772 487 667 c 0
 506 732 510 771 531 834 c 0
 544 875 552 901 575 935 c 0
 592 959 607 962 629 976 c 0
 645 987 655 996 674 997 c 0
 676 997 679 997 681 997 c 0
 700 996 712 985 731 980 c 0
 736 978 746 965 754 951 c 0
EndSplineSet
Validated: 1
EndChar

StartChar: c
Encoding: 99 99 10
Width: 598
VWidth: 0
Flags: W
HStem: 8.39952 34.5984<193.445 300.535> 593.811 27.9527<370.338 446.187>
VStem: 96.3564 46.0498<104.946 343.213> 455 43<548.327 585.375>
LayerCount: 2
Back
SplineSet
355.241210938 496 m 0
 375.82421875 501.216796875 367.045898438 511.899414062 369.241210938 522 c 0
 366.323242188 541.53125 349.138671875 545.131835938 335.241210938 550 c 0
 312.32421875 557.884765625 293.116210938 570.3671875 265.241210938 570 c 0
 238.232421875 571.26953125 221.005859375 562.157226562 203.241210938 550 c 0
 187.711914062 538.916992188 172.866210938 531.846679688 159.241210938 520 c 0
 147.272460938 512.180664062 133.805664062 501.596679688 121.241210938 490 c 0
 104.306640625 484.094726562 98.4677734375 471.752929688 83.2412109375 462 c 0
 76.37109375 457.599609375 63.44140625 439.926757812 61.2412109375 434 c 0
 33.2412109375 402 l 0
 5.2412109375 368 l 0
 -16.7587890625 330 l 0
 -21.525390625 320.788085938 -22.0849609375 308.845703125 -26.7587890625 300 c 0
 -29.728515625 282.440429688 -37.17578125 267.051757812 -38.7587890625 250 c 0
 -49.4033203125 229.435546875 -54.5244140625 204.07421875 -54.7587890625 178 c 0
 -54.923828125 159.754882812 -60.7587890625 142.140625 -60.7587890625 122 c 0
 -53.49609375 72.7626953125 -20.345703125 36.2197265625 33.2412109375 34 c 0
 69.9111328125 32.84375 108.573242188 32.703125 131.241210938 50 c 0
 145.2265625 60.890625 161.073242188 68.80078125 177.241210938 82 c 1024
EndSplineSet
Fore
SplineSet
464 530 m 0
 452 538 444 546 445 548 c 0
 449 555 454 560 455 567 c 1
 456 576 455 581 451 588 c 1
 450 590 449 591 449 591 c 1
 440.282917549 592.74341649 432.916724457 593.811388301 425.723839331 593.811388301 c 0
 420.539501058 593.811388301 415.445195209 593.25658351 410 592 c 0
 389 588 373 583 354 571 c 0
 322 550 306 542 279 514 c 0
 240 474 223 449 192 404 c 0
 169 370 163 341 153 301 c 0
 145.746301613 270.006925075 142.406200438 247.710732842 142.406200438 222.354754564 c 0
 142.406200438 209.259208366 143.29713563 195.347497949 145 179 c 0
 149 138 150 109 169 76 c 0
 183 52 196 54 197 53 c 1
 206.899238535 49.7002538218 216.117956767 42.997906131 232.515559632 42.997906131 c 0
 235.995367913 42.997906131 239.798477069 43.2997461782 244 44 c 0
 272 48 289 52 312 67 c 0
 334 81 330 83 348 104 c 0
 350 106 364 108 378 107 c 0
 378.42504902 106.969639356 378.857472189 106.95494878 379.296401958 106.95494878 c 0
 392.46267517 106.95494878 411.483447279 120.173214486 412.943504747 120.173214486 c 0
 413.002606814 120.173214486 413.032934391 120.15155541 413.032934391 120.106483773 c 0
 413.032934391 120.079503827 413.022067303 120.044134606 413 120 c 0
 395 100 371 59 348 44 c 0
 325 29 312 20 284 16 c 0
 270.408537152 13.8253659444 259.477155523 8.39952151167 244.457034703 8.39952151167 c 0
 231.849296424 8.39952151167 216.360732819 12.2224383892 194 25 c 0
 148 51 132 74 121 98 c 0
 105 136 102 158 98 198 c 0
 96.873774392 208.811765837 96.3563731616 218.913236566 96.3563731616 228.612965311 c 0
 96.3563731616 261.976228011 102.477696338 290.586520715 111 327 c 0
 120 367 125 395 148 429 c 0
 179 474 197 501 236 541 c 0
 263 568 280 577 313 598 c 0
 332 611 348 616 370 620 c 0
 375.670319744 621.193751525 381.607834996 621.764046867 387.759384913 621.764046867 c 0
 402.220331945 621.764046867 417.86407127 618.61249695 434 613 c 0
 474 599 490 569 492 566 c 0
 497 557 499 550 498 540 c 1
 496 532 491 528 487 522 c 0
 486 519 475 523 464 530 c 0
EndSplineSet
Validated: 1
EndChar

StartChar: l
Encoding: 108 108 11
Width: 573
VWidth: 0
Flags: W
HStem: -20 24G<141.5 141.5 147 147.5> -7.22187 21G<145.5 145.5 164.541 171.626>
VStem: 99.9149 36<31.5089 100.116>
LayerCount: 2
Back
SplineSet
480.112304688 954 m 4
 464.434570312 943.6328125 457.95703125 927.37890625 450.112304688 912 c 0
 417.112304688 831 l 0
 366.112304688 690 l 0
 330.112304688 603 l 0
 255.112304688 435 l 0
 246.112304688 414 l 0
 204.112304688 300 l 0
 144.112304688 150 l 0
 120.112304688 72 l 0
 120.112304688 48 l 0
 120.112304688 20.994140625 133.782226562 18 162.112304688 18 c 0
 207.641601562 18 251.176757812 42.201171875 294.112304688 54 c 0
 354.112304688 90 l 1025
EndSplineSet
Fore
SplineSet
141 4 m 1xa0
 140 4 140 4 141 4 c 1xa0
439 884 m 0
 454 886 454 886 456 886 c 0
 463 886 493 893 486 881 c 0
 472 857 447 835 435 809 c 0
 417 768 426 791 410 749 c 0
 391 700 381 669 361 620 c 0
 339 566 327 537 304 485 c 0
 281 433 268 404 248 351 c 0
 228 299 220 269 200 217 c 0
 181 168 167 141 150 91 c 0
 143.401695159 71.2050854763 135.914867322 59.4068779118 135.914867322 39.6922107254 c 0
 135.914867322 38.4920105897 135.942614977 37.262470499 136 36 c 0
 136 34 137 31 137 31 c 1
 144 34 149 37 157 39 c 0
 182 45 196 49 221 56 c 0
 247 64 261 68 287 78 c 0
 309 86 346 103 367 112 c 0
 370 113 365 97 363 84 c 0
 361 70 358 58 355 57 c 0
 334 48 343 51 322 42 c 0
 296 32 281 28 255 20 c 0
 230 13 216 9 191 3 c 0
 181.819375037 0.881394239305 176.628519291 -7.22186534706 166.62248688 -7.22186534706 c 0x60
 162.459721211 -7.22186534706 157.463557755 -5.81937503699 151 -2 c 1
 151 -2 150 -2 150 -2 c 2
 149 -1 148 -1 147 0 c 1
 147 -0 148 -1 149 -1 c 1
 141 4 124 17 112 33 c 0
 100 50 101 58 100 68 c 0
 99.9426149773 69.3772405444 99.9148673221 70.7149645988 99.9148673221 72.017140559 c 0
 99.9148673221 93.4068779118 107.401695159 105.205085476 114 125 c 0
 131 175 145 202 164 251 c 0
 184 303 192 333 212 385 c 0
 232 438 246 467 268 519 c 0
 291 572 305 604 327 658 c 0
 347 707 331 669 350 718 c 0
 366 760 361 746 378 787 c 0
 389 813 391 824 405 848 c 0
 412 860 416 872 422 884 c 0
 423 886 421 882 439 884 c 0
147 0 m 1
 144 1 142 3 141 4 c 1xa0
 142 3 144 2 147 0 c 1
EndSplineSet
Validated: 1
EndChar

StartChar: m
Encoding: 109 109 12
Width: 794
VWidth: 0
Flags: W
HStem: -4 21G<545 554.5> 524 44.1322<571.886 644.809> 538 38.6333<376.012 479.31>
VStem: 327.694 39.3058<13.5915 49.4782> 654 42.0215<421.371 517.766>
LayerCount: 2
Back
SplineSet
142.262695312 495 m 0
 184.989257812 518.22265625 190.087890625 538.926757812 226.262695312 546 c 0
 239.8984375 546 238.262695312 544.106445312 238.262695312 531 c 0
 238.604492188 515.702148438 239.198242188 500.811523438 229.262695312 489 c 0
 225.956054688 485.069335938 217.61328125 454.620117188 217.262695312 450 c 0
 193.262695312 372 l 0
 163.262695312 276 l 0
 139.262695312 204 l 0
 128.825195312 195.045898438 127.065429688 178.654296875 121.262695312 165 c 0
 110.393554688 140.516601562 95.1845703125 118.805664062 88.2626953125 93 c 0
 85.19921875 81.578125 82.0966796875 68.712890625 76.2626953125 57 c 0
 103.262695312 126 l 0
 151.262695312 228 l 0
 175.262695312 294 l 0
 193.262695312 357 l 0
 223.262695312 435 l 0
 259.262695312 492 l 0
 272.467773438 518.068359375 300.4765625 542.466796875 329.262695312 551 c 0
 355.041992188 558.642578125 377.333984375 561 406.262695312 561 c 0
 439.9921875 561 463.262695312 546.717773438 463.262695312 513 c 0
 463.262695312 492 l 0
 433.262695312 426 l 0
 403.262695312 333 l 0
 388.262695312 273 l 0
 385.262695312 264 l 0
 361.262695312 198 l 0
 334.262695312 138 l 0
 310.262695312 72 l 0
 301.262695312 51 l 0
 325.262695312 126 l 0
 358.262695312 210 l 0
 415.262695312 366 l 0
 436.262695312 423 l 0
 442.7890625 436.489257812 447.892578125 441.959960938 451.262695312 456 c 0
 461.840820312 500.069335938 520.594726562 555 571.262695312 555 c 0
 591.888671875 555 620.544921875 537.036132812 623.262695312 514 c 0
 624.802734375 500.948242188 619.325195312 482.541015625 616.262695312 471 c 0
 609.275390625 444.66796875 600.3046875 423.35546875 594.262695312 399 c 0
 586.146484375 366.283203125 576.073242188 338.439453125 567.262695312 304 c 0
 556.262695312 261 543.67578125 212.842773438 525.262695312 175 c 0
 500.176757812 123.443359375 482.713867188 68.7802734375 462.262695312 18 c 0
 505.262695312 43 l 1029
EndSplineSet
Fore
SplineSet
228 376 m 2xb8
 236 403 240 422 248 452 c 0
 254 475 260 488 265 508 c 1
 262 506 257 502 252 498 c 0
 237 487 229 479 214 468 c 0
 213.885575221 467.923716814 213.774060004 467.886712718 213.665287886 467.886712718 c 0
 210.922262033 467.886712718 209.923716814 491.419557524 208 502 c 0
 205 516 206 526 208 528 c 0
 223 539 201 523 216 534 c 0
 229 544 235 550 248 556 c 0
 249.651387819 557.100925213 251.302775638 563.656013882 258.124813677 563.656013882 c 0
 263.696057146 563.656013882 272.715728614 559.284271386 288 544 c 0
 298 533 303 526 305 522 c 1
 309 528 314 534 319 540 c 0
 336 557 351 560 372 569 c 1
 388 574 397 575 413 575 c 0
 424.47826087 575 433.778827977 576.633270321 443.600147941 576.633270321 c 0xb8
 452.603024575 576.633270321 462.043478261 575.260869565 474 570 c 0
 484 565 508 548 523 527 c 1
 531 535 540 542 551 549 c 0
 569 561 582 568 604 568 c 0
 606.909090909 568 609.752066116 568.132231405 612.667167543 568.132231405 c 0
 625.785123967 568.132231405 640.363636364 565.454545455 669 536 c 0
 691.475844792 513.524155208 696.021500109 500.403191881 696.021500109 490.553230856 c 0
 696.021500109 484.626316744 694.375670978 479.883722714 694 475 c 0
 693 453 687 442 681 420 c 0
 670 385 662 366 652 331 c 0
 642 297 638 278 629 244 c 0
 622 215 620 199 610 171 c 0
 597 134 586 115 571 78 c 0
 565 60 562 56 560 50 c 1
 563 47 565 45 567 43 c 0
 570.017908687 39.9820913127 574.401983301 38.9678926513 578.997793917 38.9678926513 c 0
 588.418736701 38.9678926513 598.729411447 43.2296382129 599.985745178 43.2296382129 c 0
 600.069816984 43.2296382129 600.113342832 43.2105538252 600.113342832 43.1698308575 c 0
 600.113342832 43.1322833995 600.076340467 43.0763404667 600 43 c 0
 570 1 l 1
 555 -9 564 -2 545 -4 c 0
 545 -4 524 2 509 28 c 0
 506.540125222 32.1817871231 505.592996425 36.0005152107 505.592996425 39.4859535883 c 0
 505.592996425 50.1696851552 514.491974956 57.7219123448 516 63 c 0
 526 93 524 85 535 114 c 0
 549 151 561 169 574 206 c 0
 584 234 586 250 593 279 c 0
 602 313 606 332 616 366 c 0
 626 401 634 421 644 456 c 0
 650 477 653 481 654 502 c 0
 655 509 646 513 645 518 c 1
 641 519 632 524 624 524 c 0xd8
 603 524 605 524 586 512 c 0
 564 498 551 487 537 464 c 0
 512 423 503 396 487 350 c 0
 472 306 471 279 456 235 c 0
 445 197 436 176 422 140 c 0
 402 89 393 59 367 10 c 0
 367 10 365.2421875 6.7041015625 360.696594238 6.7041015625 c 0
 355.544921875 6.7041015625 346.8125 10.9375 333 29 c 0
 329.22627665 34.0316311327 327.694190288 39.8544282609 327.694190288 46.1182235438 c 0
 327.694190288 69.7316356362 349.46755908 99.6123285383 355 117 c 0
 369 152 377 170 389 205 c 0
 404 247 411 269 425 310 c 0
 438 348 443 370 456 407 c 0
 467 435 475 451 486 479 c 0
 490.30384635 491.296703857 492.339558814 497.16702837 492.339558814 504.513301906 c 0
 492.339558814 509.115390502 491.540659229 514.296703857 490 522 c 1
 490 524 481 530 480 532 c 1
 465 537 468 538 447 538 c 0
 431 538 422 537 407 532 c 1
 386 523 371 520 355 503 c 0
 329 474 320 453 302 419 c 0
 285 388 302 423 280 370 c 0
 278 366 266 333 265 329 c 0
 250 278 237 248 219 199 c 0
 207 165 198 146 184 113 c 0
 171 84 165 68 151 40 c 0
 147.452652336 32.9053046729 144.691784388 14.0134136152 135.045124458 14.0134136152 c 0
 133.814181351 14.0134136152 132.471120093 14.3210214953 131 15 c 0
 114 23 100 53 100 53 c 1
 109 80 119 93 130 119 c 0
 146 157 157 179 171 218 c 0
 188 263 193 290 211 334 c 0
 217 349 222 362 227 374 c 0
 228 376 l 2xb8
EndSplineSet
Validated: 1
EndChar

StartChar: b
Encoding: 98 98 13
Width: 698
VWidth: 0
Flags: W
HStem: -0.66575 35.8261<237.287 307.416> 558.523 36<415.697 539.988> 973 20G<461.5 469.551>
VStem: 562 36.01<378.121 534.991>
LayerCount: 2
Back
SplineSet
477.020507812 1039 m 1
 450.020507812 943 l 0
 437.810546875 917.265625 427.836914062 890.684570312 417.020507812 862 c 0
 410.234375 844.004882812 404.642578125 822.749023438 402.020507812 805 c 0
 372.020507812 748 l 0
 348.020507812 691 l 0
 321.020507812 625 l 0
 294.020507812 565 l 0
 264.020507812 487 l 0
 246.020507812 421 l 0
 225.020507812 358 l 0
 207.020507812 292 l 0
 199.950195312 268.029296875 194.5625 243.361328125 186.020507812 220 c 0
 178.068359375 175.852539062 152.041992188 142.3046875 150.020507812 94 c 0
 137.474609375 30.326171875 96.2080078125 -56.7421875 138.020507812 49 c 0
 149.010742188 83.1845703125 171.588867188 120.061523438 180.020507812 157 c 0
 180.668945312 159.841796875 194.431640625 195.815429688 195.020507812 196 c 0
 216.020507812 265 l 0
 234.020507812 328 l 0
 255.020507812 391 l 0
 271.7734375 422.720703125 286.448242188 447.932617188 309.020507812 472 c 0
 337.848632812 491.366210938 358.874023438 513.1171875 390.020507812 529 c 0
 422.451171875 551.05078125 457.51171875 561.469726562 501.020507812 559 c 0
 587.325195312 554.100585938 560.020507812 528 589.020507812 472 c 0
 570.020507812 392 l 0
 556.020507812 321 l 0
 519.020507812 233 l 0
 503.020507812 199 507.020507812 211 492.020507812 189 c 4
 483.69921875 176.794921875 467.061523438 155.604492188 459.020507812 143 c 0
 417.020507812 97 l 0
 375.020507812 59 l 0
 322.020507812 27 l 0
 300.793945312 23.7236328125 277.916992188 0.5146484375 255.020507812 4 c 0
 205.8359375 11.4853515625 209.151367188 23.1435546875 180.020507812 43 c 0
 168.020507812 64 l 1025
EndSplineSet
Fore
SplineSet
155 27 m 0
 155 26 155 25 154 25 c 0
 149 13 136 0 136 0 c 0
 135 -0 101 40 100 40 c 1
 101 40 114 50 119 59 c 0
 120 63 122 67 123 71 c 0
 124 76 124 75 124 78 c 0
 124 80 125 82 126 83 c 0
 128 89 129 95 130 101 c 0
 144 152 150 181 164 231 c 0
 182 294 191 330 212 393 c 0
 222 423 230 449 238 474 c 0
 248 510 259 544 275 587 c 0
 308 671 314 717 343 802 c 0
 369 876 367 881 398 954 c 0
 407 975 406 973 412 988 c 0
 413 991 455 993 468 993 c 0
 471.10295529 993 472.393169149 991.722165877 472.393169149 989.591691635 c 0
 472.393169149 979.363452077 442.65522719 949.482840785 441 947 c 0
 433 928 439 940 431 920 c 0
 405 849 405 842 379 766 c 0
 351 682 344 637 311 553 c 0
 303 531 296 512 290 494 c 1
 304 514 312 530 333 548 c 0
 356 568 373 574 401 584 c 0
 422 592 436 593 458 594 c 0
 463.562305899 594.309016994 468.456171278 594.522542486 473.094715098 594.522542486 c 0
 483.466814396 594.522542486 492.562305899 593.454915028 505 590 c 0
 508 589 558 580 581 535 c 0
 597.2 505.3 598.01 484.51 598.01 456.592 c 0
 598.01 453.49 598 450.3 598 447 c 0
 597 406 590 383 580 343 c 0
 568 297 564 269 542 227 c 0
 518 181 498 159 464 120 c 0
 437 88 420 70 386 46 c 0
 354 23 335 7 295 0 c 0
 292.259587269 -0.456735455095 289.571326358 -0.66574977001 286.932239817 -0.66574977001 c 0
 266.458721359 -0.66574977001 248.944690452 11.9134709102 233 19 c 0
 219 25 210 22 186 45 c 0
 183 48 184 47 180 50 c 2
 180 50 176 51 172 50 c 0
 167 48 156 29 155 27 c 0
170 80 m 1
 182 67 185 64 185 64 c 2
 186 63 192 59 204 54 c 0
 226.265069803 44.5801627756 235.330139606 35.1603255513 251.918851303 35.1603255513 c 0
 254.701581417 35.1603255513 257.696023287 35.4253953543 261 36 c 0
 300 43 319 59 351 82 c 0
 385 106 402 124 429 156 c 0
 463 195 483 217 507 261 c 0
 528 303 532 331 544 377 c 0
 554 417 561 440 562 481 c 0
 562 509 559 524 551 544 c 1
 544 550 542 552 536 554 c 0
 524.94427191 557.454915028 516.27583139 558.522542486 506.035698103 558.522542486 c 0
 501.456171278 558.522542486 496.562305899 558.309016994 491 558 c 0
 469 557 457 556 436 548 c 0
 408 538 391 532 368 512 c 0
 345 492 330 478 308 456 c 0
 281 429 295 452 273 423 c 0
 272 421 258 388 256 382 c 0
 254 375 251 366 248 359 c 0
 227 296 218 260 200 197 c 0
 188 151 182 123 170 80 c 1
EndSplineSet
Validated: 1
EndChar

StartChar: g
Encoding: 103 103 14
Width: 771
VWidth: 0
Flags: W
HStem: -200.545 31.4648<239.581 363.155> 157.405 39.6992<359.518 472.722> 557.286 42.0469<479.684 608.715>
VStem: 268.837 36.3525<248.962 359.399> 625.672 45.3281<356.438 516.922>
LayerCount: 2
Back
SplineSet
633.188476562 559 m 5
 511.188476562 565 l 4
 453.188476562 543 l 4
 401.188476562 509 l 4
 379.188476562 471 l 4
 345.188476562 413 l 4
 319.188476562 369 l 4
 310.224609375 361.173828125 308.427734375 347.176757812 303.188476562 335 c 4
 298.48046875 324.057617188 297.188476562 304.801757812 297.188476562 291 c 4
 297.188476562 229.447265625 340.647460938 229.28515625 365.188476562 195 c 4
 411.188476562 191 l 4
 473.188476562 195 l 4
 525.188476562 215 l 4
 559.8125 225.114257812 579.315429688 256.734375 601.188476562 281 c 4
 619.423828125 303.333984375 631.591796875 326.8984375 639.188476562 353 c 4
 645.0234375 373.047851562 648.319335938 389.520507812 651.188476562 409 c 4
 649.188476562 505 l 4
 649.188476562 471 l 4
 644.322265625 441.672851562 637.604492188 412.471679688 625.188476562 385 c 4
 607.875976562 346.693359375 600.0390625 297.04296875 591.188476562 255 c 4
 575.188476562 169 l 4
 547.188476562 105 l 4
 519.188476562 31 l 4
 513.857421875 6.01171875 505.653320312 -20.333984375 489.188476562 -43 c 4
 471.1015625 -65.6044921875 455.27734375 -91.2421875 437.188476562 -111 c 4
 426.670898438 -128.01171875 416.958984375 -146.499023438 401.188476562 -157 c 4
 371.033203125 -188.875 318.090820312 -186.80859375 273.188476562 -179 c 4
 244.247070312 -169.729492188 212.801757812 -169.454101562 185.188476562 -155 c 4
 183.541992188 -154.138671875 159.188476562 -139 159.188476562 -139 c 4
 119.188476562 -113 l 1029
EndSplineSet
Fore
SplineSet
668.34375 512 m 2
 669.34375 509 669.34375 509 669.34375 506 c 1
 670.514648438 494.870117188 671 484.168945312 671 473.645507812 c 0
 671 448.240234375 668.171875 423.870117188 665.34375 397 c 0
 661.34375 363 655.34375 345 645.34375 311 c 0
 634.34375 272 634.34375 250 623.34375 212 c 0
 611.34375 170 600.34375 146 587.34375 105 c 0
 576.34375 70 568.34375 50 551.34375 17 c 0
 530.34375 -23 520.34375 -45 495.34375 -82 c 0
 475.34375 -111 452.34375 -142 426.34375 -167 c 0
 402.34375 -190 395.34375 -196 361.34375 -198 c 0
 344.595703125 -199.116210938 330.029296875 -200.544921875 314.861328125 -200.544921875 c 0
 302.858398438 -200.544921875 290.479492188 -199.650390625 276.34375 -197 c 0
 244.34375 -191 230.34375 -181 201.34375 -169 c 1
 175.34375 -158 162.34375 -151 137.34375 -139 c 0
 132.102539062 -136.379882812 100.155273438 -113.157226562 100.155273438 -107.991210938 c 0
 100.155273438 -107.33984375 100.663085938 -106.975585938 101.795898438 -106.975585938 c 0
 101.96484375 -106.975585938 102.146484375 -106.983398438 102.34375 -107 c 0
 105.09375 -107.25 109.28125 -107.3125 114.109375 -107.3125 c 0
 118.9375 -107.3125 124.40625 -107.25 129.71875 -107.25 c 0
 140.34375 -107.25 150.34375 -107.5 153.34375 -109 c 0
 178.34375 -121 166.34375 -120 190.34375 -131 c 1
 221.34375 -143 220.34375 -150 250.34375 -156 c 0
 274.545898438 -160.538085938 289.595703125 -169.080078125 309.336914062 -169.080078125 c 0
 315.698242188 -169.080078125 322.545898438 -168.193359375 330.34375 -166 c 0
 362.34375 -157 379.34375 -147 403.34375 -124 c 0
 429.34375 -99 446.34375 -80 466.34375 -51 c 0
 491.34375 -14 498.34375 10 519.34375 50 c 0
 536.34375 83 537.34375 104 548.34375 139 c 0
 559.34375 175 564.34375 197 573.34375 232 c 1
 566.34375 227 557.34375 224 548.34375 217 c 0
 521.34375 196 506.34375 185 474.34375 174 c 0
 452.704101562 166.538085938 436.631835938 157.405273438 416.572265625 157.405273438 c 0
 409.749023438 157.405273438 402.46484375 158.461914062 394.34375 161 c 0
 362.34375 171 329.34375 193 295.34375 237 c 1
 274.286132812 263.953125 268.836914062 280.973632812 268.836914062 302.404296875 c 0
 268.836914062 306.416992188 269.028320312 310.583984375 269.34375 315 c 0
 271.34375 344 277.34375 361 290.34375 387 c 0
 307.34375 421 317.34375 438 338.34375 469 c 0
 359.34375 499 376.34375 517 405.34375 540 c 0
 435.34375 564 466.34375 581 503.34375 590 c 0
 524.009765625 595.333007812 532.232421875 599.333007812 544.602539062 599.333007812 c 0
 550.788085938 599.333007812 558.009765625 598.333007812 568.34375 596 c 0
 597.34375 589 613.34375 580 655.34375 536 c 0
 664.34375 526 669.34375 518 666.34375 517 c 0
 668.34375 512 l 2
624.34375 524 m 1
 618.34375 537 611.34375 541 610.34375 542 c 1
 610.372070312 542.084960938 610.385742188 542.169921875 610.385742188 542.256835938 c 0
 610.385742188 545.225585938 593.919921875 549.11328125 579.34375 553 c 0
 567.583984375 556.166015625 564.416015625 557.286132812 561.513671875 557.286132812 c 0
 557.998046875 557.286132812 554.870117188 555.643554688 537.34375 554 c 0
 500.34375 551 466.34375 532 436.34375 508 c 0
 407.34375 485 388.34375 469 368.34375 439 c 0
 347.34375 408 339.34375 392 322.34375 358 c 0
 309.34375 332 307.34375 310 305.34375 281 c 0
 305.239257812 279.544921875 305.189453125 278.138671875 305.189453125 276.778320312 c 0
 305.189453125 251.958007812 321.811523438 242.428710938 330.34375 232 c 1
 343.34375 224 336.34375 230 367.34375 208 c 1
 386.270507812 202.125976562 400.0859375 197.104492188 415.461914062 197.104492188 c 0
 423.645507812 197.104492188 432.270507812 198.526367188 442.34375 202 c 0
 474.34375 213 487.34375 228 514.34375 249 c 0
 541.34375 269 559.34375 280 578.34375 308 c 0
 598.34375 336 604.34375 356 614.34375 389 c 0
 623.34375 419 622.34375 438 625.34375 469 c 0
 625.57421875 471.305664062 625.671875 473.784179688 625.671875 476.368164062 c 0
 625.671875 490.689453125 622.670898438 508.248046875 622.670898438 517.563476562 c 0
 622.670898438 521.145507812 623.115234375 523.508789062 624.34375 524 c 1
EndSplineSet
Validated: 1
EndChar

StartChar: p
Encoding: 112 112 15
Width: 748
VWidth: 0
Flags: W
HStem: 566.75 36.1356<453.656 573> 568 20G<342 380>
VStem: 100.118 40.882<-235.448 -144.114> 610.639 37.6109<391.528 530.638>
LayerCount: 2
Back
SplineSet
370.775390625 566 m 0
 365.268554688 548.54296875 360.205078125 530.530273438 350.775390625 516 c 0
 326.775390625 454 l 0
 300.775390625 398 l 0
 274.775390625 342 l 0
 248.775390625 286 l 0
 246.775390625 278 l 0
 228.775390625 222 l 0
 212.775390625 176 l 0
 196.775390625 134 l 0
 178.775390625 86 l 0
 162.775390625 46 l 0
 155.419921875 20.111328125 147.5625 -8.5615234375 136.775390625 -30 c 0
 128.294921875 -61.6806640625 111.525390625 -92.5703125 96.775390625 -122 c 0
 90.1630859375 -133.426757812 64.8037109375 -214.177734375 72.775390625 -178 c 0
 83.6103515625 -155.685546875 92.185546875 -133.662109375 100.775390625 -110 c 0
 105.9375 -81.62109375 118.587890625 -55.9609375 130.775390625 -30 c 0
 140.443359375 -1.95703125 163.90234375 19.1884765625 172.775390625 46 c 0
 187.712890625 71.9453125 206.887695312 96.0888671875 216.775390625 124 c 0
 224.131835938 144.764648438 230.576171875 165.100585938 236.775390625 186 c 0
 258.775390625 254 l 0
 288.775390625 332 l 0
 320.775390625 432 l 0
 329.72265625 454.28125 335.295898438 479.920898438 352.775390625 498 c 0
 369.1484375 532.509765625 402.03125 558.719726562 436.775390625 572 c 0
 465.956054688 585.266601562 498.0625 588.849609375 528.775390625 590 c 0
 595.45703125 592.498046875 626.775390625 531.944335938 626.775390625 472 c 0
 606.041992188 355.461914062 539.141601562 232.302734375 428.775390625 182 c 0
 390.694335938 166.102539062 351.795898438 154.796875 310.775390625 152 c 0
 279.783203125 149.88671875 244.775390625 179.133789062 244.775390625 212 c 0
 244.775390625 222 l 0
 250.775390625 234 l 1025
EndSplineSet
Fore
SplineSet
281 177 m 2xb0
 285 171 l 1
 293 163 290 166 298 160 c 1
 304 158 307 148 320 149 c 0
 338 151 347 155 365 161 c 0
 383 167 393 168 411 176 c 0
 429 184 438 188 454 199 c 0
 473 213 484 222 500 240 c 0
 518 260 528 270 544 293 c 0
 558 313 565 326 575 347 c 0
 584 365 587 376 593 395 c 0
 601 420 606 436 609 463 c 0
 609.926649916 474.119798994 610.638629816 483.09289782 610.638629816 491.809074032 c 0
 610.638629816 501.905128977 609.68337521 511.656474036 607 524 c 0
 603 542 596 543 594 546 c 1
 593 547 585 556 573 560 c 1
 559.5 564.5 549.9375 566.75 537.5625 566.75 c 0
 533.4375 566.75 529 566.5 524 566 c 0
 501 564 489 560 466 553 c 0
 448 547 437 544 423 533 c 0
 405 518 398 506 384 486 c 0
 376 475 370 468 364 458 c 0
 362 448 360 436 356 424 c 0
 330 342 316 296 289 214 c 0
 285 200 284 196 280 185 c 0
 281 177 l 2xb0
370 552 m 2
 369 549 380 562 386 567 c 0
 401 579 412 581 430 587 c 0
 453 594 466 599 489 601 c 0
 498.428090416 601.942809042 506.300625276 602.885618083 514.188952983 602.885618083 c 0xb0
 523.034295318 602.885618083 531.899494937 601.700168354 543 598 c 0
 562 592 584 583 614 551 c 1
 614 550 l 1
 638 524 640 511 644 493 c 0
 647.062870566 478.298221281 648.249505911 466.973665961 648.249505911 454.888734782 c 0
 648.249505911 447.245553203 647.774851773 439.298221281 647 430 c 0
 644 403 638 387 630 362 c 0
 624 343 621 331 612 313 c 0
 602 292 595 280 581 260 c 0
 565 237 554 226 536 206 c 0
 520 188 511 179 491 165 c 0
 475 154 466 150 448 142 c 0
 430 134 419 133 401 127 c 0
 383 121 373 116 355 114 c 0
 349.553586903 113.359245518 344.723023265 112.923774189 340.047932735 112.923774189 c 0
 330.130568085 112.923774189 320.912832421 114.883395169 308 121 c 0
 304 123 287 134 269 153 c 1
 260 125 251 98 239 62 c 0
 225 20 215 -2 200 -43 c 0
 186 -81 177 -102 163 -139 c 0
 154 -163 151 -176 141 -199 c 0
 136 -212 139 -220 123 -234 c 0
 121.642586591 -235.187736733 120.328358444 -235.734892085 119.06220058 -235.734892085 c 0
 107.630995978 -235.734892085 100.117976566 -191.136527431 100.117976566 -170.691002614 c 0
 100.117976566 -166.707859398 100.403124237 -163.641408347 101 -162 c 0
 112 -130 121 -113 132 -82 c 0
 143 -52 150 -35 161 -6 c 0
 176 35 183 58 197 99 c 0
 213 145 219 171 234 216 c 0
 247 257 255 279 268 321 c 0
 280 356 283 376 296 412 c 0
 305 437 309 451 320 476 c 0
 322 482 325 487 327 491 c 0
 330 505 331 518 334 531 c 0
 336 543 340 574 344 588 c 1x70
 380 587 l 1
 370 552 l 2
EndSplineSet
Validated: 1
EndChar

StartChar: k
Encoding: 107 107 16
Width: 661
VWidth: 0
Flags: W
HStem: -0.489796 21G<135.061 138.204> 483 39.4609<521.263 535.911>
LayerCount: 2
Back
SplineSet
385.079101562 780 m 0
 301.645507812 813.786132812 360.612304688 740.209960938 331.079101562 735 c 0
 307.079101562 624 l 0
 247.079101562 420 l 0
 193.079101562 249 l 0
 163.079101562 150 l 0
 159.807617188 117.513671875 154.221679688 84.8916015625 145.079101562 54 c 0
 93.7197265625 -83.228515625 150.977539062 82.326171875 160.079101562 147 c 0
 175.688476562 266.342773438 270.874023438 340.880859375 376.079101562 387 c 0
 394.334960938 395.002929688 479.549804688 424.541992188 484.079101562 447 c 0
 541.079101562 492 l 0
 331.079101562 387 l 0
 303.875 372.802734375 285.28515625 348.846679688 271.079101562 321 c 0
 256.194335938 291.818359375 217.079101562 255.23828125 217.079101562 222 c 0
 216.825195312 212.749023438 219.698242188 201.772460938 229.079101562 198 c 0
 262.303710938 140.8359375 291.194335938 73.9716796875 352.079101562 42 c 0
 353.96484375 41.0107421875 385.079101562 18 385.079101562 18 c 0
 394.079101562 9 l 1025
EndSplineSet
Fore
SplineSet
168 255 m 24
 173 271 175 283 179 297 c 0
 182 309 184 319 187 329 c 0
 199 376 209 410 225 463 c 0
 247 536 263 577 285 651 c 0
 305 718 305 718 323 785 c 1
 359 751 l 1
 341 684 341 683 321 616 c 0
 299 542 283 501 261 428 c 0
 253 402 246 380 240 359 c 1
 264 380 286 389 315 409 c 0
 342 428 357 439 385 456 c 0
 416 474 433 486 465 500 c 0
 481.249460861 506.841878257 512.127452374 522.460874906 528.859069621 522.460874906 c 0
 531.69122316 522.460874906 534.118052168 522.013356525 536 521 c 0
 559 508 561 483 561 483 c 0
 520 460 494 456 454 431 c 0
 431 417 418 410 394 396 c 0
 365 379 348 368 320 350 c 0
 305 340 290 333 279 319 c 1
 261 300 254 303 242 278 c 0
 240.605656855 275.037020818 240.001142038 271.861395547 240.001142038 268.557838936 c 0
 240.001142038 252.907343245 253.568636038 234.385606604 261 222 c 0
 271 205 273 205 289 181 c 0
 302 162 307 156 318 139 c 0
 335 113 342 111 361 92 c 0
 370 83 375 81 411 51 c 1
 399 7 l 1
 387 17 359 32 324 67 c 0
 298 94 282 114 263 142 c 0
 250 161 243 173 232 190 c 0
 227 198 215 211 207 227 c 1
 207 226 205 224 204 222 c 0
 204 221 204 222 204 221 c 0
 198 196 192 174 186 150 c 0
 182 134 178 117 173 98 c 0
 170 88 167 80 164 72 c 0
 162 63 160 54 157 43 c 0
 152 25 153 13 140 0 c 0
 140 0 139.102040816 -0.489795918367 137.306122449 -0.489795918367 c 0
 132.816326531 -0.489795918367 122.714285714 2.57142857143 107 24 c 0
 102.364313229 30.3740693107 100.666656592 35.6568702856 100.666656592 40.1402555125 c 0
 100.666656592 51.1312038997 110.86919127 57.3178433857 113 63 c 0
 119 80 123 92 128 106 c 0
 134 130 138 151 145 181 c 0
 152 210 159 226 168 255 c 24
EndSplineSet
Validated: 1
EndChar

StartChar: q
Encoding: 113 113 17
Width: 619
VWidth: 0
Flags: W
HStem: 157.414 37.9502<190.994 290.818> 597.125 37.3125<317.399 440.719>
VStem: 100.053 34.248<261.114 393.771>
LayerCount: 2
Back
SplineSet
463.133789062 566 m 1
 387.133789062 596 l 0
 381.133789062 596 l 0
 373.749023438 596 368.416015625 596 365.133789062 596 c 0
 340.57421875 592.481445312 320.376953125 590.8203125 295.133789062 578 c 0
 273.982421875 567.05859375 240.998046875 551.778320312 225.133789062 532 c 0
 186.360351562 495.375 157.185546875 451.146484375 143.133789062 402 c 0
 129.799804688 355.366210938 109.651367188 305.279296875 126.133789062 254 c 0
 144.133789062 198 159.133789062 194.001953125 214.133789062 166.000976562 c 0
 223.947265625 161.004882812 243.259765625 161.283203125 254.133789062 161 c 0
 276.48046875 160.41796875 278.272460938 166.506835938 297.133789062 173 c 0
 423.767578125 216.594726562 429.41796875 358.4375 459.133789062 466 c 0
 467.815429688 497.427734375 483.133789062 539.301757812 483.133789062 570 c 0
 477.60546875 529.028320312 459.758789062 486.34375 445.133789062 444 c 0
 382.14453125 261.630859375 355.911132812 69.4384765625 322.133789062 -119 c 0
 318.090820312 -141.555664062 298.321289062 -208.5625 326.133789062 -194 c 0
 351.411132812 -180.764648438 365.35546875 -148.301757812 392.133789062 -123 c 1028
EndSplineSet
Fore
SplineSet
470.186523438 571 m 1
 455.186523438 579 449.186523438 581 436.186523438 587 c 0
 419.686523438 593.75 407.124023438 597.125 391.327148438 597.125 c 0
 386.061523438 597.125 380.436523438 596.75 374.186523438 596 c 0
 343.186523438 591 329.186523438 584 300.186523438 571 c 0
 279.186523438 561 263.186523438 553 245.186523438 538 c 0
 219.186523438 516 204.186523438 502 185.186523438 474 c 0
 170.186523438 451 164.186523438 435 156.186523438 408 c 0
 145.186523438 377 139.186523438 360 136.186523438 327 c 0
 135.243164062 314.743164062 134.30078125 304.04296875 134.30078125 293.639648438 c 0
 134.30078125 281.975585938 135.486328125 270.686523438 139.186523438 258 c 0
 148.186523438 229 154.186523438 224 161.186523438 216 c 0
 168.186523438 210 185.186523438 198 215.186523438 196 c 0
 218.927734375 195.568359375 222.5234375 195.364257812 226.016601562 195.364257812 c 0
 246.798828125 195.364257812 263.927734375 202.583007812 286.186523438 212 c 0
 310.186523438 222 323.186523438 230 340.186523438 244 c 0
 344.186523438 248 348.186523438 252 353.186523438 256 c 0
 359.186523438 262 364.186523438 267 369.186523438 273 c 0
 372.186523438 284 376.186523438 297 380.186523438 310 c 0
 387.186523438 333 390.186523438 346 398.186523438 367 c 0
 406.186523438 394 414.186523438 410 423.186523438 436 c 0
 433.186523438 463 437.186523438 478 446.186523438 505 c 0
 456.186523438 531 461.186523438 548 470.186523438 571 c 1
402.186523438 236 m 0
 398.186523438 222 394.186523438 209 390.186523438 195 c 0
 386.186523438 181 378.186523438 142 373.186523438 125 c 0
 357.186523438 71 357.186523438 65 345.186523438 10 c 0
 333.186523438 -39 326.186523438 -66 316.186523438 -116 c 0
 314.186523438 -125 315.186523438 -129 314.186523438 -135 c 1
 328.186523438 -117 353.186523438 -76 365.186523438 -59 c 1
 370.186523438 -140 l 1
 360.186523438 -154 362.186523438 -154 348.186523438 -172 c 0
 342.122070312 -178.73828125 329.700195312 -200.006835938 310.615234375 -200.006835938 c 0
 301.377929688 -200.006835938 287.6171875 -197.166992188 278.186523438 -181 c 0
 264.186523438 -157 265.186523438 -155 265.186523438 -155 c 4
 269.186523438 -128 273.186523438 -110 279.186523438 -81 c 0
 288.186523438 -31 292.186523438 -2 304.186523438 48 c 0
 316.186523438 102 327.186523438 132 343.186523438 186 c 1
 336.186523438 182 328.186523438 178 319.186523438 174 c 0
 296.647460938 165.331054688 279.369140625 157.4140625 256.927734375 157.4140625 c 0
 253.481445312 157.4140625 249.9140625 157.600585938 246.186523438 158 c 0
 218.186523438 160 198.186523438 165 163.186523438 200 c 0
 128.186523438 235 114.186523438 262 106.186523438 290 c 0
 101.475585938 304.130859375 100.052734375 316.344726562 100.052734375 328.504882812 c 0
 100.052734375 339.578125 101.233398438 350.607421875 102.186523438 363 c 0
 105.186523438 396 111.186523438 413 122.186523438 444 c 0
 130.186523438 471 136.186523438 488 151.186523438 511 c 0
 170.186523438 539 186.186523438 553 212.186523438 575 c 0
 230.186523438 590 246.186523438 599 267.186523438 608 c 0
 296.186523438 621 311.186523438 629 342.186523438 633 c 0
 348.436523438 634 354.249023438 634.4375 359.842773438 634.4375 c 0
 376.624023438 634.4375 391.436523438 630.5 410.186523438 626 c 0
 437.186523438 619 446.186523438 615 480.186523438 595 c 1
 480.186523438 595 495.388671875 605.641601562 507.03515625 605.641601562 c 0
 511.75 605.641601562 515.880859375 603.8984375 518.186523438 599 c 0
 518.745117188 597.881835938 519 596.416992188 519 594.66796875 c 0
 519 577.641601562 494.813476562 533.696289062 491.186523438 521 c 0
 483.186523438 495 477.186523438 478 470.186523438 451 c 0
 463.186523438 423 455.186523438 412 448.186523438 385 c 0
 440.186523438 350 430.186523438 326 422.186523438 293 c 0
 416.186523438 269 408.186523438 256 402.186523438 236 c 0
EndSplineSet
Validated: 1
EndChar

StartChar: r
Encoding: 114 114 18
Width: 699
VWidth: 0
Flags: W
HStem: 549 38<390.42 514.462>
VStem: 262 30<525.139 537>
LayerCount: 2
Back
SplineSet
184.798828125 512 m 4
 216.091796875 539.69921875 232.122070312 559.78125 266.798828125 562 c 4
 272.323242188 562 274.798828125 562.57421875 274.798828125 558 c 4
 278.75390625 544.09765625 279.036132812 536.895507812 278.798828125 522 c 4
 278.647460938 512.497070312 276.798828125 502.325195312 276.798828125 496 c 4
 276.798828125 491.333007812 275.536132812 486.608398438 274.798828125 482 c 4
 273.541015625 474.137695312 275.827148438 465.204101562 271.798828125 455 c 4
 256.798828125 417 254.36328125 432.641601562 243.797851562 390 c 4
 234.43359375 352.20703125 199.185546875 266.512695312 186.798828125 230 c 4
 180.994140625 212.888671875 181.798828125 215 174.798828125 197 c 4
 173.107421875 192.650390625 163.888671875 166.538085938 162.798828125 162 c 4
 150.798828125 112 105.264648438 -12.376953125 112.798828125 24 c 4
 121.771484375 67.3251953125 139.58203125 111.965820312 149.057617188 153 c 4
 152.029296875 165.869140625 165.153320312 208.15234375 168.798828125 220 c 4
 172.798828125 233 186.319335938 272.3203125 189.798828125 280 c 4
 242.798828125 397 240.705078125 464.1875 350.798828125 534 c 4
 382.125976562 553.865234375 409.884765625 572.940429688 456.798828125 570 c 4
 484.146484375 571.038085938 509.682617188 567.98828125 530.798828125 558 c 4
 567.737304688 540.52734375 567.67578125 522.3671875 588.798828125 488 c 1028
EndSplineSet
Fore
SplineSet
297 525 m 0
 293 528 292 529 292 532 c 0
 292 534 293 536 293 539 c 0
 293 544 290 552 277 565 c 0
 262 580 254 584 249 584 c 0
 243 584 242 577 241 577 c 0
 227 572 213.073170732 572.341463415 204 561 c 1
 194 554 204 562 204 561 c 1
 204 561 203 559 200 556 c 2
 208 492 l 1
 220 505 225 515 239 525 c 0
 247 531 255 535 262 537 c 1
 262 527 262 520 260 509 c 0
 257 493 254 489 248 474 c 0
 245 465 240 456 236 448 c 0
 217 414 212 392 198 355 c 0
 186 324 180 306 169 275 c 0
 154 232 144 208 130 165 c 0
 120 133 116 115 108 83 c 0
 107 81 100 63 100 43 c 0
 100 27 105 11 121 1 c 0
 133 -6 129 -1 131 1 c 0
 145 13 147 29 152 47 c 0
 160 78 163 99 171 127 c 0
 183 170 190 190 206 232 c 0
 219 267 227 288 239 323 c 0
 251 359 257 372 269 408 c 0
 271 415 281 429 285 434 c 0
 292 444 298 452 306 461 c 0
 310 465 314 469 318 474 c 0
 330 487 339 492 353 503 c 0
 371 516 379 525 399 535 c 0
 416 543 427 545 445 548 c 0
 447 548 450 549 453 549 c 0
 471 549 496 541 508 534 c 0
 526 524 523 524 540 517 c 0
 546 513 550 509 550 509 c 2
 577 487 583 484 586 484 c 0
 587 484 587 485 588 485 c 0
 589 485 589 484 590 484 c 0
 600 488 589 484 603 488 c 1
 592 506 l 2
 586 515 596 501 571 530 c 0
 551 551 532 566 514 574 c 0
 493 583 480 584 459 586 c 0
 452 587 446 587 441 587 c 0
 431 587 423 586 411 584 c 0
 393 581 381 579 364 571 c 0
 344 561 336 552 318 539 c 0
 310 533 305 520 297 525 c 0
EndSplineSet
Validated: 5
EndChar

StartChar: t
Encoding: 116 116 19
Width: 481
VWidth: 0
Flags: W
HStem: 3 21G<156 164.5>
VStem: 92 292
LayerCount: 2
Back
SplineSet
157.845703125 474 m 1
 347.845703125 518 l 0
 363.845703125 522 l 1025
211.845703125 692 m 1
 291.845703125 712 l 0
 293.3984375 713.03515625 293.737304688 714 295.845703125 714 c 0
 300.036132812 714 299.845703125 714.190429688 299.845703125 710 c 0
 299.845703125 704 l 0
 289.845703125 658 l 0
 271.845703125 574 l 0
 243.845703125 452 l 0
 219.845703125 358 l 0
 215.845703125 346 l 0
 183.845703125 246 l 0
 161.845703125 176 l 0
 149.845703125 124 l 0
 142.21484375 104.37109375 143.634765625 83.3779296875 135.845703125 64 c 0
 122.877929688 31.7373046875 143.8515625 8 173.845703125 8 c 0
 188.84375 8 196.470703125 15.4140625 209.845703125 20 c 0
 373.845703125 150 l 1025
EndSplineSet
Fore
SplineSet
269 686 m 2
 207 699 l 1
 225 701 284 738 308 739 c 0
 310 739 312 739 314 739 c 0
 336 738 341 727 341 716 c 0
 340 705 334 695 334 695 c 1
 330 678 322 656 315 631 c 0
 303 593 298 569 288 535 c 1
 351 546 l 1
 384 507 l 1
 274 489 l 1
 257 434 242 398 221 336 c 0
 204 287 195 259 179 209 c 0
 165 166 155 143 143 100 c 0
 138 80 138 76 137 62 c 0
 139 54 140 42 149 45 c 0
 173 51 178 58 198 73 c 0
 225 92 240 104 266 123 c 0
 281 135 303 151 320 162 c 1
 311 96 l 1
 295 85 315 97 299 85 c 0
 273 66 258 55 232 36 c 0
 211 21 205 13 181 7 c 0
 174 5 168 3 161 3 c 0
 151 3 139 9 118 30 c 0
 96 54 92 67 92 76 c 0
 92 80 93 83 94 86 c 0
 96 102 105 120 109 136 c 0
 121 179 131 203 145 245 c 0
 161 295 170 325 187 373 c 0
 202 417 214 447 226 481 c 1
 175 473 l 1
 145 508 l 1
 242 527 l 1
 244 535 246 544 249 553 c 0
 262 599 268 623 282 669 c 0
 285 678 287 685 290 693 c 1
 283 690 275 687 269 686 c 2
EndSplineSet
Validated: 1
EndChar

StartChar: u
Encoding: 117 117 20
Width: 658
VWidth: 0
Flags: W
HStem: -5.30566 53.7822<188.173 267.975> -5.30566 36.3057<380.738 423.55>
VStem: 100 38.9756<96.1153 271.401> 343.998 35.9551<30.3087 107.925>
LayerCount: 2
Back
SplineSet
207.637695312 528 m 0
 234.181640625 543.869140625 263.848632812 546.943359375 291.637695312 556 c 0
 294.979492188 556 295.249023438 552.317382812 293.637695312 550 c 0
 204.637695312 422 115.637695312 277.25 115.637695312 114 c 0
 115.637695312 67.9619140625 186.762695312 -15.3232421875 224.637695312 7 c 0
 375.637695312 96 505.459960938 339.784179688 555.637695312 503 c 4
 555.637695312 503 361.637695312 135.022460938 361.637695312 48 c 0
 361.637695312 2.4140625 372.637695312 5 399.637695312 2 c 0
 513.637695312 74 l 1025
EndSplineSet
Fore
SplineSet
422.149414062 200 m 2xb0
 416.149414062 187 413.149414062 174 406.149414062 158 c 0
 403.149414062 150 398.149414062 136 396.149414062 124 c 0
 393.149414062 107 388.149414062 91 385.149414062 71 c 0
 382.55078125 57.1435546875 379.953125 44.787109375 379.953125 34.580078125 c 0
 379.953125 33.0009765625 380.014648438 31.4736328125 380.149414062 30 c 1
 383.149414062 31 383.149414062 31 384.149414062 31 c 0
 402.149414062 37 408.149414062 39 422.149414062 48 c 0
 453.149414062 68 492.149414062 102 524.149414062 122 c 1
 503.149414062 52 l 1
 471.149414062 32 482.149414062 41 452.149414062 20 c 0
 439.149414062 11 436.149414062 1 418.149414062 -5 c 0
 417.658203125 -5.1962890625 416.770507812 -5.3056640625 415.5546875 -5.3056640625 c 0x70
 404.390625 -5.3056640625 365.478515625 3.9296875 350.149414062 40 c 0
 345.586914062 51.078125 343.998046875 60.4580078125 343.998046875 69.5224609375 c 0
 343.998046875 74.3681640625 344.452148438 79.123046875 345.149414062 84 c 1
 338.149414062 77 332.149414062 71 324.149414062 63 c 0
 303.149414062 42 289.149414062 29 264.149414062 14 c 0
 253.936523438 8.1640625 241.594726562 0.19921875 226.736328125 0.19921875 c 0
 221.2265625 0.19921875 215.37109375 1.294921875 209.149414062 4 c 0
 186.149414062 14 168.149414062 30 149.149414062 50 c 0
 120.149414062 81 109.149414062 102 104.149414062 127 c 0
 101.178710938 141.110351562 100 153.153320312 100 164.612304688 c 0
 100 184.01171875 103.376953125 201.739257812 107.149414062 225 c 0
 113.149414062 263 119.149414062 286 132.149414062 322 c 0
 147.149414062 362 158.149414062 385 178.149414062 423 c 0
 199.149414062 463 192.149414062 454 216.149414062 493 c 0
 219.149414062 499 223.149414062 504 227.149414062 509 c 1
 223.149414062 507 217.149414062 504 203.149414062 498 c 1
 168.149414062 534 l 1
 202.149414062 549 193.149414062 545 209.149414062 550 c 0
 218.4140625 552.850585938 229.7109375 565.860351562 244.849609375 565.860351562 c 0
 250.952148438 565.860351562 257.678710938 563.74609375 265.149414062 558 c 0
 284.25390625 543.526367188 288.276367188 535.0859375 288.276367188 530.543945312 c 0
 288.276367188 527.241210938 286.149414062 526 286.149414062 526 c 1
 281.149414062 500 261.149414062 485 246.149414062 460 c 0
 222.149414062 421 228.149414062 431 207.149414062 391 c 0
 187.149414062 353 178.149414062 329 164.149414062 289 c 0
 151.149414062 253 149.149414062 229 143.149414062 191 c 0
 140.6171875 175.387695312 138.975585938 164.938476562 138.975585938 155.521484375 c 0
 138.975585938 142.619140625 142.056640625 131.653320312 150.149414062 112 c 0
 160.149414062 88 165.149414062 89 172.149414062 81 c 0
 175.149414062 78 189.149414062 67 189.149414062 67 c 0
 194.149414062 64 204.149414062 57 210.149414062 54 c 0
 217.047851562 50.81640625 225.916992188 48.4765625 235.263671875 48.4765625 c 0
 243.530273438 48.4765625 252.169921875 50.306640625 260.149414062 55 c 0
 285.149414062 70 283.149414062 74 304.149414062 95 c 0
 331.149414062 121 339.149414062 137 362.149414062 167 c 0
 377.149414062 187 384.149414062 206 392.149414062 224 c 0
 408.149414062 262 422.149414062 293 442.149414062 338 c 0
 457.149414062 371 465.149414062 390 481.149414062 423 c 0
 495.149414062 451 491.149414062 445 506.149414062 472 c 0
 514.149414062 487 524.149414062 511 537.149414062 523 c 1
 537.149414062 523 549.149414062 509 553.149414062 490 c 0
 553.365234375 488.91796875 553.46484375 487.80078125 553.46484375 486.655273438 c 0
 553.46484375 477.209960938 546.715820312 465.809570312 543.149414062 456 c 0
 531.149414062 426 528.149414062 418 514.149414062 389 c 0
 489.149414062 336 484.149414062 335 459.149414062 284 c 0
 454.149414062 274 453.149414062 272 453.149414062 272 c 0
 453.149414062 272 452.149414062 269 436.149414062 230 c 0
 432.149414062 221 424.149414062 206 424.149414062 206 c 1
 422.149414062 200 l 2xb0
EndSplineSet
Validated: 1
EndChar

StartChar: v
Encoding: 118 118 21
Width: 559
VWidth: 0
Flags: W
HStem: 4.77737 21G<130.639 143.221> 577 20G<124 145>
VStem: 100.556 41.4444<53 259.655> 119 40<239.688 557> 419 40<481.098 534.175>
LayerCount: 2
Back
SplineSet
140.124023438 539 m 1
 144.124023438 49 l 0
 144.694335938 44.154296875 146.124023438 38.9248046875 146.124023438 31 c 0
 167.8203125 51.6376953125 183.21484375 71.642578125 204.124023438 97 c 0
 238.23046875 131.665039062 261.107421875 186.141601562 288.124023438 227 c 0
 309.897460938 274.552734375 328.209960938 312.038085938 346.124023438 361 c 0
 347.609375 365.05859375 364.54296875 409.157226562 362.124023438 413 c 0
 378.124023438 487 l 0
 382.124023438 529 l 1025
EndSplineSet
Fore
SplineSet
125 597 m 1xd8
 165 557 l 1
 163 497 162 465 159 405 c 0xd8
 157 348 157 314 153 257 c 0
 150 211 150 185 147 139 c 0
 145 106 143 80 142 53 c 1
 145 57 148 60 150 63 c 0
 179 91 191 105 217 137 c 0
 247 173 262 196 286 235 c 0
 305 266 314 284 330 317 c 0
 350 359 362 383 380 426 c 0
 392 453 395 467 403 494 c 0
 411 522 413 540 419 568 c 1
 459 527 l 1
 453 499 451 481 443 454 c 0
 435 426 432 411 421 384 c 0
 403 341 390 317 370 275 c 0
 354 242 344 225 325 194 c 0
 301 153 286 130 256 94 c 0
 230 63 218 48 190 20 c 0
 183.530108785 15.3786491319 154.849058369 4.77737078693 131.592191791 4.77737078693 c 0
 129.686646726 4.77737078693 127.817515833 4.84854034724 126 5 c 0
 112 6 101 11 101 25 c 0
 100.666666667 31.3333333333 100.555555556 36.8888888889 100.555555556 42.1851851852 c 0xe8
 100.555555556 52.7777777778 101 62.3333333333 101 75 c 1
 103 116 104 139 107 179 c 0
 110 225 109 251 112 297 c 0
 116 354 116 388 119 445 c 0
 122 504 123 537 125 597 c 1xd8
EndSplineSet
Validated: 1
EndChar

StartChar: w
Encoding: 119 119 22
Width: 817
VWidth: 0
Flags: W
HStem: -1.98122 43.4303<183.813 277.969> 12 50.6263<405.737 500.998>
VStem: 100.264 42.8429<91.8125 362.323> 679.157 37.4415<390.891 577.878>
LayerCount: 2
Back
SplineSet
223.958984375 567 m 1
 181.958984375 459 l 0
 171.955078125 439.953125 164.942382812 422.298828125 157.958984375 401 c 0
 137.958984375 340 132.658203125 321.599609375 126.958984375 256 c 0
 122.865234375 208.881835938 132.783203125 88.0791015625 160.958984375 61 c 0
 193.119140625 30.0908203125 190.637695312 24.3564453125 244.958984375 24 c 0
 267.1484375 23.8544921875 277.641601562 38.8623046875 292.958984375 51 c 0
 310.103515625 73.2822265625 333.791992188 92.8623046875 346.958984375 117 c 0
 356.397460938 134.302734375 365.2578125 151.102539062 373.958984375 168 c 0
 424.958984375 300 l 0
 400.958984375 219 l 0
 387.958984375 159 l 0
 387.958984375 149.538085938 381.87109375 122.288085938 382.958984375 111 c 0
 386.178710938 77.58203125 394.954101562 46.1953125 436.958984375 42 c 0
 474.721679688 38.228515625 513.041992188 59.0869140625 530.958984375 90 c 0
 544.766601562 113.823242188 556.590820312 133.1328125 571.958984375 153 c 0
 592.025390625 178.94140625 610.173828125 216.861328125 622.958984375 248 c 0
 655.489257812 327.23046875 688.958984375 377.436523438 688.958984375 468 c 0
 688.958984375 521.515625 689.958984375 567 644.958984375 599 c 0
 635.958984375 605 l 1025
EndSplineSet
Fore
SplineSet
210 598 m 1xb0
 234 549 l 1
 219 510 218 505 205 470 c 0
 189 427 177 405 165 364 c 0
 154 328 151 307 145 269 c 0
 143.645751311 258.617426718 143.106609072 249.049959886 143.106609072 238.917778452 c 0
 143.106609072 226.604640537 143.902832459 213.457513111 145 197 c 1
 147 161 147 148 155 117 c 1
 159 99 167 85 177 71 c 1
 189 55 193 53 208 45 c 1
 213.590360732 42.3911649916 217.93063614 41.4491104161 221.797318213 41.4491104161 c 0
 228.305678802 41.4491104161 233.472288586 44.1180721465 241 46 c 1
 259 50 268 55 285 68 c 1
 301 81 308 90 321 110 c 1
 338 137 345 153 359 183 c 1
 367 199 372 211 381 233 c 1
 389 254 393 268 402 289 c 1
 403 292 411 311 427 327 c 0
 432.968944099 332.968944099 437.306623973 335.378766251 440.419934579 335.378766251 c 0
 446.100360948 335.378766251 447.704832256 327.356409712 447.704832256 318.292554254 c 0
 447.704832256 306.52416128 445 293 445 293 c 0
 438 268 433 251 426 226 c 1
 420 201 413 192 410 172 c 0
 406.43277675 145.245825627 399.684283072 130.42141536 399.684283072 112.63212304 c 0
 399.684283072 110.473919984 399.783611625 108.272077939 400 106 c 1
 402 84 409 78 416 71 c 0
 423.117647059 63.8823529412 430.653979239 62.6262975779 440.234479951 62.6262975779 c 0
 445.460207612 62.6262975779 451.294117647 63 458 63 c 0
 471 63 477 63 493 77 c 1
 509 90 514 101 532 125 c 1
 548 147 555 160 568 183 c 1
 582 208 590 223 603 250 c 1
 616 278 623 293 635 321 c 1
 645 344 650 355 657 379 c 0
 664 404 670 415 673 440 c 1
 675.679449472 458.756146302 679.156615552 471.130559741 679.156615552 489.947888379 c 0
 679.156615552 492.199061502 679.106850176 494.54244595 679 497 c 1
 678.920431353 498.670941577 678.885180894 500.278571458 678.885180894 501.831453609 c 0
 678.885180894 513.90500027 681.016053674 522.669073804 681.016053674 532.14865613 c 0
 681.016053674 536.773072825 680.508954344 541.567764363 679 547 c 1
 676 558 672 572 665 581 c 1
 660 588 661 608 655 623 c 1
 662 617 674 612 687 595 c 1
 696 584 702 571 707 556 c 1
 714 534 715 517 716 496 c 1
 716.366025404 487.581415713 716.598076211 480.100653599 716.598076211 472.87118018 c 0
 716.598076211 460.349364905 715.901923789 448.581415713 714 434 c 1
 711 409 708 391 701 366 c 0
 694 340 687 325 677 302 c 1
 665 272 657 257 644 229 c 1
 631 202 624 186 608 159 c 1
 593 134 582 120 566 98 c 1
 552 80 545 61 521 40 c 1
 505 26 485 12 456 12 c 0x70
 431 12 406 18 385 39 c 0
 368 56 364 75 362 93 c 1
 360 90 357 87 355 83 c 1
 342 63 333 50 312 32 c 1
 293 17 276 6 250 -0 c 1
 243.466401061 -1.36116644555 237.229245978 -1.9812232541 231.248183806 -1.9812232541 c 0
 215.258890363 -1.9812232541 201.099800796 2.45009960199 188 9 c 1
 165 21 153 35 139 53 c 1
 125 71 119 85 114 107 c 1
 106 142 105 167 103 199 c 1
 101.809133568 214.481263615 100.263726422 227.835282941 100.263726422 242.650848385 c 0
 100.263726422 252.717276499 100.97716608 263.458429694 103 276 c 0
 109 314 112 338 123 376 c 0
 136 421 149 446 165 487 c 0
 180 526 197 563 210 598 c 1xb0
EndSplineSet
Validated: 1
EndChar

StartChar: z
Encoding: 122 122 23
Width: 747
VWidth: 0
Flags: W
HStem: 8 36<429.164 541.506> 12.2725 38.7275<173.443 535.56> 547.414 39<219.839 567.48>
LayerCount: 2
Back
SplineSet
65.533203125 552 m 0
 127.95703125 565.016601562 184.533203125 559 244.533203125 555 c 0
 301.57421875 551.197265625 384.533203125 548 431.533203125 543 c 0
 528.6953125 532.6640625 408.107421875 479.114257812 377.533203125 452 c 0
 262.169921875 349.690429688 141.72265625 252.188476562 39.533203125 138 c 0
 33.1650390625 130.883789062 -14.466796875 68 -14.466796875 68 c 4
 73.533203125 70 l 0
 293.533203125 66 l 0
 385.533203125 60 l 1025
EndSplineSet
Fore
SplineSet
195 558 m 0x60
 185 569 181 577 184 578 c 0
 202 581 212 585 230 586 c 0
 236.443650814 586.292893219 242.115223689 586.414213562 247.466991411 586.414213562 c 0
 260.387301628 586.414213562 271.443650814 585.707106781 287 585 c 0
 316 584 334 584 363 582 c 1
 409 580 434 577 480 574 c 0
 522 571 547 573 590 565 c 1
 596 564 599 567 615 554 c 0
 640 534 647 515 647 514 c 1
 650 500 641 495 633 487 c 0
 611 467 594 464 571 446 c 0
 538 420 520 402 489 373 c 0
 451 337 430 315 391 278 c 0
 359 247 340 229 308 199 c 0
 273 164 252 147 219 110 c 0
 199 88 189 72 173 51 c 1
 182 51.5 189.5 51.75 197.25 51.75 c 0
 205 51.75 213 51.5 223 51 c 0
 261 50 281 47 318 46 c 0
 324 45.8571428571 329.653061224 45.7959183673 335.06122449 45.7959183673 c 0
 367.510204082 45.7959183673 391.142857143 48 428 48 c 0
 453 48 467 45 492 44 c 1
 504 43 508 43 520 42 c 0
 524 42 536 33 545 22 c 0
 554 11 558 3 554 3 c 0
 543 4 537 4 526 5 c 1
 501 6 487 8 462 8 c 0xa0
 427.6 8 406 6.72 376.72 6.72 c 0
 369.4 6.72 361.6 6.8 353 7 c 0
 315 8 294 11 257 12 c 0
 251.079526826 12.1909830056 245.596747752 12.2725424859 240.384478511 12.2725424859 c 0
 218.304951685 12.2725424859 201.079526826 10.8090169944 176 10 c 1
 162 10 154 10 141 9 c 0
 141 9 123 11 104 41 c 0
 101.534475469 44.8743956919 100.495610712 48.2835762399 100.495610712 51.3258558739 c 0
 100.495610712 65.55856756 123.232762266 71.7610889509 129 80 c 0
 150 107 159 124 182 149 c 0
 215 186 236 203 271 238 c 0
 303 269 323 285 355 316 c 0
 393 353 414 375 452 411 c 0
 483 440 502 458 535 484 c 0
 558 503 574 507 596 526 c 0
 597 527 598 528 600 530 c 1
 572 533 548 532 514 535 c 0
 468 538 443 540 397 542 c 1
 368 544 351 545 322 546 c 0
 306.443650814 546.707106781 295.387301628 547.414213562 282.466991411 547.414213562 c 0
 277.115223689 547.414213562 271.443650814 547.292893219 265 547 c 0
 248 546 237 542 219 539 c 0
 216 538 205 547 195 558 c 0x60
EndSplineSet
Validated: 1
EndChar

StartChar: x
Encoding: 120 120 24
Width: 574
VWidth: 0
Flags: W
HStem: 522.552 50.1074<179.035 221.408>
LayerCount: 2
Back
SplineSet
278.10546875 326 m 1
 301.10546875 239 l 1049
174.29296875 552.405273438 m 0
 201.296875 538.236328125 225.0625 527.5546875 243.890625 505.158203125 c 0
 276.05078125 466.802734375 279.540039062 413.115234375 288.10546875 366 c 0
 296.219726562 329.421875 304.637695312 292.705078125 315.44140625 258.702148438 c 0
 324.331054688 240.940429688 320.681640625 221.290039062 327.9140625 203.1640625 c 0
 336.913085938 181.37890625 344.251953125 162.709960938 349.529296875 138.66015625 c 0
 358.541015625 97.5966796875 379.19140625 66.447265625 396.965820312 31.33984375 c 0
 409.485351562 16.0009765625 l 1025
432.368164062 520.259765625 m 0
 426.7421875 502.125 414.0703125 489.513671875 405.848632812 476.708007812 c 0
 393.53515625 456.782226562 383.921875 435.879882812 367.76953125 418.245117188 c 0
 339.073242188 378.521484375 311.513671875 338.717773438 289.016601562 295.549804688 c 0
 270.633789062 255.770507812 250.123046875 218.896484375 230.967773438 178.80078125 c 0
 208.971679688 148.447265625 192.793945312 109.815429688 170.751953125 80.36328125 c 0
 169.764648438 79.044921875 154.407226562 57.89453125 154.407226562 57.89453125 c 0
 136.10546875 34 l 1025
EndSplineSet
Fore
SplineSet
120.471679688 23.5546875 m 4
 106.5 24.8955078125 90.4560546875 23.2861328125 92.50390625 25.236328125 c 4
 114.25390625 55.7158203125 149.365234375 100.873046875 169.139648438 132.400390625 c 4
 191.01171875 167.876953125 200.569335938 190.651367188 221.465820312 227.15234375 c 4
 239.265625 259.727539062 248.75 279.502929688 267.525390625 311.053710938 c 4
 272.743164062 319.9296875 273.791992188 321.904296875 277.9609375 328.8046875 c 5
 275.254882812 340.875 272.71875 359.942382812 269.110351562 376.03515625 c 4
 263.794921875 404.172851562 263.111328125 417.193359375 256.723632812 442.356445312 c 4
 250.310546875 466.520507812 252.212890625 462.47265625 247.580078125 477.58984375 c 4
 245.7265625 483.63671875 238.021484375 495.828125 237.045898438 496.852539062 c 6
 237.045898438 496.852539062 229.268554688 506.044921875 221.416992188 512.23828125 c 4
 221.416992188 512.23828125 209.6640625 522.52734375 208.665039062 522.551757812 c 4
 201.788085938 527.721679688 208.665039062 522.551757812 187.012695312 537.083984375 c 4
 180.13671875 542.25390625 168.45703125 555.541992188 161.678710938 564.709960938 c 4
 154.900390625 573.877929688 155.899414062 573.854492188 163.873046875 572.659179688 c 4
 182.842773438 571.196289062 198.862304688 571.805664062 228.658203125 563.077148438 c 4
 254.48046875 555.4453125 265.427734375 512.165039062 280.813476562 486.782226562 c 4
 283.520507812 474.712890625 l 4
 290.883789062 448.525390625 293.56640625 435.456054688 298.028320312 413.340820312 c 4
 301.587890625 395.249023438 302.270507812 382.228515625 303.928710938 368.18359375 c 5
 311.170898438 378.009765625 318.4609375 389.8359375 327.775390625 402.612304688 c 4
 346.428710938 429.165039062 358.766601562 442.868164062 377.443359375 470.420898438 c 4
 395.072265625 495.999023438 404.411132812 509.775390625 421.040039062 535.377929688 c 4
 422.088867188 537.352539062 433.061523438 536.084960938 450.056640625 535.669921875 c 4
 464.051757812 535.329101562 480.095703125 536.938476562 479.047851562 534.962890625 c 4
 462.41796875 509.361328125 430.18359375 459.131835938 412.5546875 433.5546875 c 4
 393.877929688 406.001953125 381.540039062 392.297851562 362.88671875 365.745117188 c 4
 345.233398438 339.16796875 331.823242188 322.489257812 317.266601562 299.837890625 c 5
 320.899414062 284.745117188 325.532226562 269.626953125 330.067382812 250.510742188 c 4
 337.333984375 220.325195312 342.965820312 205.18359375 350.232421875 174.997070312 c 4
 357.498046875 144.810546875 371.12890625 129.473632812 379.467773438 102.262695312 c 4
 386.001953125 83.09765625 395.779296875 73.8564453125 409.336914062 55.5205078125 c 4
 422.893554688 37.1845703125 447.59375 24.578125 460.077148438 3.267578125 c 4
 460.176757812 3.09375 460.22265625 2.921875 460.217773438 2.7529296875 c 4
 460.145507812 -0.2392578125 444.4375 -2.365234375 430.682617188 -2.029296875 c 4
 422.595703125 -1.83203125 415.18359375 -0.7841796875 412.018554688 1.4384765625 c 4
 403.16796875 7.65625 391.415039062 17.9462890625 386.611328125 26.0654296875 c 4
 376.078125 45.328125 365.349609375 56.5927734375 352.9140625 79.9033203125 c 4
 343.33203125 97.142578125 333.651367188 110.381835938 327.166015625 131.546875 c 4
 317.875976562 160.78125 310.29296875 177.971679688 302.977539062 206.158203125 c 4
 296.58984375 231.321289062 296.663085938 234.321289062 291.201171875 256.4609375 c 5
 274.5234375 228.859375 272.376953125 222.909179688 255.625976562 192.30859375 c 4
 234.73046875 155.807617188 226.171875 133.009765625 204.299804688 97.5322265625 c 4
 184.525390625 66.0048828125 170.115234375 49.3515625 148.365234375 18.873046875 c 4
 146.317382812 16.921875 136.442382812 22.1640625 120.471679688 23.5546875 c 4
EndSplineSet
Validated: 1
EndChar

StartChar: y
Encoding: 121 121 25
Width: 814
VWidth: 0
Flags: W
HStem: -197.811 35.9938<274.148 401.347> 141.846 36.0587<381.256 516.811> 576.825 20G<402.643 406.531>
VStem: 273.192 40.4592<244.645 454.654>
LayerCount: 2
Back
SplineSet
354.999023438 550 m 0
 337.1484375 532.81640625 333.733398438 522.008789062 320.999023438 508 c 0
 306.999023438 462 l 0
 298.999023438 396 l 0
 292.999023438 340 l 0
 296.999023438 292 l 0
 296.02734375 280.501953125 302.037109375 270.92578125 302.999023438 260 c 0
 305.591796875 230.5546875 326.590820312 201.723632812 348.770507812 190 c 0
 356.416992188 185.958007812 375.499023438 181.90625 383.999023438 174.356445312 c 0
 439.999023438 162 l 0
 490.999023438 164 l 0
 530.999023438 178 l 0
 560.999023438 194 587.021484375 218.35546875 595.999023438 251 c 4
 613.668945312 288.848632812 631.61328125 330.541992188 640.999023438 370 c 0
 645.107421875 387.26953125 648.379882812 401.6328125 650.999023438 420 c 0
 652.845703125 432.954101562 652.999023438 442.669921875 652.999023438 456 c 0
 652.999023438 475.912109375 658.999023438 468 658.999023438 468 c 0
 659.932617188 451.83203125 656.055664062 438.76171875 652.999023438 424 c 0
 650.072265625 409.866210938 645.44140625 395.529296875 640.999023438 382 c 0
 628.999023438 328 l 0
 610.999023438 260 l 0
 598.999023438 214 l 0
 575.999023438 136 l 0
 551.999023438 83 l 0
 521.396484375 26 l 0
 507.475585938 -10 l 0
 487.108398438 -49 l 0
 480.8203125 -56.302734375 470.89453125 -79.4189453125 466.999023438 -88 c 0
 458.709960938 -106.258789062 460.322265625 -108.900390625 449.999023438 -122.9921875 c 0
 441.860351562 -134.102539062 439.911132812 -150.323242188 429.999023438 -157 c 0
 376.999023438 -178 l 0
 310.999023438 -176 l 0
 272.999023438 -160 l 0
 263.67578125 -155.333984375 253.397460938 -154.091796875 242.999023438 -154 c 0
 216 -153.760742188 195.751953125 -130.936523438 174.999023438 -118 c 0
 134.999023438 -84 l 0
 118.999023438 -68 l 1025
EndSplineSet
Fore
SplineSet
371 591 m 0
 380.674529875 592.612421646 399.448722226 596.824746856 405.837855531 596.824746856 c 0
 407.224732876 596.824746856 408.028043806 596.626268067 408.028043806 596.159635399 c 0
 408.028043806 596.109542524 408.018786485 596.056359456 408 596 c 0
 397 574 360 527 353 503 c 1
 342 482 336 467 331 443 c 0
 326 418 315 354 314 329 c 0
 313.775255129 322.931888472 313.651530772 317.419389774 313.651530772 312.224113559 c 0
 313.651530772 294.303061543 315.123724357 280.156633344 319 260 c 1
 323 238 329 238 338 226 c 1
 341 222 348 215 348 215 c 1
 350 213 352 210 362 204 c 1
 369 199 375 198 391 192 c 1
 414.39226584 184.514474931 424.651777253 177.904466824 446.354924861 177.904466824 c 0
 447.8465671 177.904466824 449.39226584 177.935690634 451 178 c 0
 471 179 482 184 501 191 c 0
 519 197 530 198 544 211 c 0
 560 226 564 238 574 258 c 0
 586 282 591 295 599 321 c 0
 608 349 610 366 617 394 c 0
 622 413 624 425 629 444 c 0
 633 458 659 529 666 542 c 0
 671.731105131 553.462210262 706.285870239 563.583785176 718.076275374 563.583785176 c 0
 720.544244994 563.583785176 722.014795683 563.140309039 722.014795683 562.1728237 c 0
 722.014795683 562.11696756 722.009894138 562.059364825 722 562 c 0
 719 546 675 395 671 379 c 0
 666 360 661 349 657 329 c 0
 652 306 643 292 637 269 c 0
 631 247 629 236 622 214 c 0
 613 186 608 169 597 142 c 0
 589 122 585 110 576 90 c 0
 560 53 552 32 535 -3 c 0
 524 -26 518 -39 507 -62 c 0
 493 -91 487 -110 470 -137 c 0
 459 -156 453 -168 435 -181 c 0
 421 -191 411 -193 395 -196 c 1
 386.622776602 -197.25658351 379.122776602 -197.811388301 371.765130362 -197.811388301 c 0
 361.556941504 -197.811388301 351.622776602 -196.74341649 340 -195 c 0
 317 -192 303 -188 281 -182 c 0
 255 -175 236 -165 213 -154 c 0
 191 -144 170 -123 163 -117 c 0
 144 -100 131 -88 115 -72 c 0
 105 -62 99 -52 101 -50 c 0
 103 -48 109 -48 122 -48 c 0
 145 -48 166 -75 181 -88 c 0
 190 -96 194 -100 196 -102 c 1
 196 -102 203 -109 209 -113 c 0
 230 -126 231 -128 252 -137 c 0
 273 -146 289 -152 312 -155 c 0
 328.180339887 -157.427050983 338.4701033 -161.817627458 352.400443188 -161.817627458 c 0
 355.688950351 -161.817627458 359.180339887 -161.572949017 363 -161 c 1
 379 -158 388 -160 402 -150 c 0
 420 -137 425 -120 437 -102 c 0
 454 -75 457 -57 471 -28 c 0
 482 -5 488 8 499 31 c 0
 516 66 527 86 543 123 c 0
 550 139 555 148 560 163 c 1
 554 160 544 158 535 155 c 0
 516 148 505 143 485 142 c 0
 482.391098093 141.895643924 479.891098093 141.845738801 477.477270849 141.845738801 c 0
 456.760415806 141.845738801 442.391098093 145.521780381 420 150 c 0
 405 153 394 151 374 164 c 1
 354 177 324 199 302 231 c 1
 285 255 280 270 276 292 c 1
 273.870828693 303.923359317 273.192335932 313.670700817 273.192335932 323.0180518 c 0
 273.192335932 335.621379362 274.425834261 347.497525056 275 363 c 0
 276 388 279 402 282 427 c 0
 285 451 284 465 291 489 c 0
 298 513 324 560 335 582 c 0
 336 585 355 588 371 591 c 0
EndSplineSet
Validated: 1
EndChar

StartChar: A
Encoding: 65 65 26
Width: 912
VWidth: 0
Flags: HW
HStem: 1.10774 21G<765.279 768.088> 371 47<518 755.891>
VStem: 776.194 37<411.401 768.895>
LayerCount: 2
Back
SplineSet
810.064453125 470 m 1
 798.064453125 -66 l 1053
488.813476562 279.48046875 m 1
 632.874023438 313.360351562 l 0
 650.375 315.459960938 667.57421875 324.056640625 685.793945312 327.880859375 c 0
 704.381835938 331.78125 730.067382812 335.209960938 747.534179688 337.560546875 c 1024
297.713867188 -129.5 m 0
 308.397460938 -110.868164062 325.422851562 -94.712890625 338.874023438 -76.259765625 c 0
 364.6953125 -53.080078125 383.456054688 -27.345703125 397.673828125 1.1806640625 c 0
 411.4375 28.568359375 425.3828125 58.5302734375 435.893554688 88.30078125 c 0
 450.669921875 114.3828125 460.092773438 138.151367188 468.234375 165.740234375 c 0
 478.014648438 175.838867188 477.823242188 190.057617188 485.874023438 202.040039062 c 0
 515.2734375 294 l 0
 550.553710938 400.48046875 l 0
 585.833984375 511.80078125 l 0
 588.7734375 533.580078125 l 0
 618.173828125 608.600585938 l 0
 662.2734375 717.5 l 1
 701.963867188 611.020507812 l 0
 724.013671875 519.060546875 l 0
 744.59375 390.80078125 l 0
 756.353515625 281.900390625 l 0
 768.114257812 143.9609375 l 0
 773.994140625 44.740234375 l 0
 771.053710938 3.6005859375 l 1025
EndSplineSet
Fore
SplineSet
739 21 m 0
 729 33 715 41 715 45 c 0
 720 77 720 97 727 129 c 0
 736 176 740 201 746 248 c 0
 751 295 751 326 756 371 c 1
 749.333007812 371.333007812 743 371.444335938 736.592773438 371.444335938 c 0
 723.77734375 371.444335938 710.666015625 371 694 371 c 0
 649 370 624 370 579 369 c 0
 548 369 515 367 483 366 c 1
 479 360 475 354 470 347 c 0
 434 294 415 264 376 214 c 0
 345 175 324 154 288 118 c 0
 253 83 232 63 194 32 c 0
 161 7 138 -4 102 -28 c 0
 101.866210938 -28.08984375 101.741210938 -28.1328125 101.626953125 -28.1328125 c 0
 100.799804688 -28.1328125 100.469726562 -25.8662109375 100.469726562 -22.2744140625 c 0
 100.469726562 -15.23828125 101.735351562 -3.119140625 103 7 c 0
 104 23 109 43 112 45 c 0
 148 69 125 53 158 78 c 0
 197 109 217 129 252 164 c 0
 288 200 310 220 340 259 c 0
 373 301 392 329 418 369 c 1
 413 373 407 380 402 387 c 0
 392 399 388 410 392 410 c 0
 410 411 429 411 447 412 c 1
 469 443 485 465 509 500 c 0
 537 541 550 564 578 605 c 0
 605 646 617 670 646 711 c 0
 669 746 684 764 709 798 c 0
 719 811 730 825 758 856 c 0
 758 856 772 834 772 833 c 0
 807 762 801 719 806 684 c 0
 812 642 813 618 813 575 c 0
 813.130859375 568.8203125 813.193359375 562.986328125 813.193359375 557.409179688 c 0
 813.193359375 520.571289062 810.473632812 494.952148438 807 455 c 0
 802 408 801 376 797 330 c 0
 793 281 795 258 790 207 c 0
 784 160 783 131 777 83 c 0
 773 51 774 35 769 2 c 0
 769 1.392578125 768.514648438 1.107421875 767.661132812 1.107421875 c 0
 762.895507812 1.107421875 746.6328125 9.974609375 739 21 c 0
761 410 m 1
 764 440 766 463 770 498 c 0
 773.473632812 537.952148438 776.193359375 562.817382812 776.193359375 599.45703125 c 0
 776.193359375 605.00390625 776.130859375 610.8203125 776 617 c 0
 776 660 775 684 769 725 c 0
 766 752 764 751 759 771 c 1
 751 761 753 763 745 753 c 0
 720 719 705 701 682 666 c 0
 654 625 642 601 614 560 c 0
 587 519 574 495 545 454 c 0
 535 439 527 427 518 415 c 1
 527 416 535 415 544 415 c 0
 589 416 615 417 660 418 c 0
 696 418 717 418 752 417 c 0
 754 417 757 414 761 410 c 1
EndSplineSet
EndChar

StartChar: B
Encoding: 66 66 27
Width: 789
VWidth: 0
Flags: W
HStem: 6 47<204.066 453.193> 806.25 46.6604<506 630.029>
VStem: 638.444 33.2431<212.295 334.108> 681.333 34.1715<669.51 765.521>
LayerCount: 2
Back
SplineSet
248.54296875 536 m 0
 312.955078125 603.418945312 385.022460938 664.586914062 480.54296875 678 c 0
 543.8203125 686.885742188 648.116210938 677.845703125 636.54296875 590 c 0
 634.80078125 576.775390625 635.419921875 565.14453125 632.54296875 552 c 0
 611.541992188 456.033203125 518.522460938 394.712890625 438.54296875 348 c 0
 421.896484375 337.17578125 340.088867188 300.338867188 360.54296875 314 c 0
 400.783203125 340.875 465.991210938 346 512.54296875 346 c 0
 599.803710938 346 643.568359375 278.524414062 652.54296875 198 c 0
 656.397460938 163.415039062 634.010742188 118.379882812 611.54296875 95 c 4
 580.891601562 63.1044921875 553.041015625 27.8466796875 511.54296875 11 c 4
 470.263671875 -5.7578125 430.54296875 -14 384.54296875 -24 c 4
 345.767578125 -32.4296875 311.1953125 -31.123046875 271.54296875 -30 c 0
 233.857421875 -28.9326171875 210.677734375 -10.5234375 175.54296875 0 c 0
 154.54296875 27 l 1025
444.54296875 676 m 1
 420.54296875 542 l 0
 416.54296875 530 l 0
 392.54296875 436 l 0
 360.54296875 328 l 0
 310.54296875 178 l 0
 300.767578125 165.861328125 298.768554688 149.43359375 290.54296875 136 c 0
 276.325195312 111.553710938 266.9296875 87.6064453125 252.54296875 66 c 0
 243.96875 53.1220703125 235.040039062 33.58984375 230.54296875 18 c 0
 215.54296875 -13 l 1025
EndSplineSet
Fore
SplineSet
273 698 m 0
 264 711 259 723 261 725 c 0
 289 747 305 761 334 781 c 0
 358 797 372 807 397 820 c 0
 422 833 436 841 464 846 c 0
 485.979172089 850.963038859 501.423388846 852.909944487 519.955698687 852.909944487 c 0
 527.56184405 852.909944487 535.68817764 852.581988897 545 852 c 0
 579 849 601 846 633 830 c 0
 645 824 655 820 669 806 c 0
 684 791 701 764 708 748 c 0
 713.623983345 733.291120483 715.504867439 721.763875329 715.504867439 711.313151753 c 0
 715.504867439 697.606725821 712.269543586 685.752033311 710 671 c 0
 705 639 697 621 682 593 c 0
 668 567 657 553 636 533 c 0
 608 505 590 492 556 471 c 0
 546 465 535 459 528 455 c 1
 541 451 552 448 566 442 c 0
 588 433 607 413 630 380 c 0
 658 339 662 317 667 294 c 0
 670.125 280.25 671.6875 269.625 671.6875 258.462890625 c 0
 671.6875 251.765625 671.125 244.875 670 237 c 0
 666 207 666 186 652 160 c 0
 638 132 622 120 600 100 c 0
 573 76 558 60 527 45 c 0
 491 27 468 23 429 15 c 0
 391 8 370 6 331 6 c 0
 295 6 275 7 239 16 c 0
 207 24 189 35 161 50 c 0
 149 56 140 62 123 81 c 0
 122 82 121 84 120 85 c 0
 96 116 90 135 90 135 c 2
 84 147 84 152 91 147 c 0
 98 142 109 128 115 116 c 0
 117 112 119 108 121 104 c 2
 121 104 128 99 134 96 c 0
 140 93 145 90 150 88 c 1
 147 94 146 99 147 100 c 0
 172 128 184 147 205 180 c 0
 233 224 248 252 272 299 c 0
 300 353 317 389 337 438 c 0
 335 440 334 442 335 443 c 0
 335 443 337 444 341 445 c 0
 345 455 349 464 353 475 c 0
 384 546 401 587 427 659 c 0
 447 713 456 746 467 792 c 1
 455 787 444 781 429 773 c 0
 404 760 390 751 366 735 c 0
 337 715 321 701 293 679 c 0
 291 677 282 685 273 698 c 0
192 68 m 1
 197 66 203 65 209 63 c 0
 244 54 264 53 300 53 c 0
 339 53 360 55 398 62 c 0
 437 70 460 74 496 92 c 0
 527 107 541 123 568 147 c 0
 590 167 605 179 619 206 c 0
 632 232 633 251 637 281 c 0
 638 288 638.444444444 294 638.444444444 299.592592593 c 0
 638.444444444 310.777777778 636.666666667 320.333333333 634 333 c 0
 628 361 623 372 622 373 c 0
 616 382 615 386 594 395 c 0
 553 412 529 418 485 419 c 0
 483.265621411 419.039417695 481.551441634 419.058636579 479.85648074 419.058636579 c 0
 438.551441634 419.058636579 408.659798363 407.645240743 376 399 c 0
 376 399 375 399 374 400 c 1
 351 348 335 311 305 254 c 0
 281 207 266 178 238 134 c 0
 221 107 209 89 192 68 c 1
401 464 m 1
 415 469 428 473 438 477 c 0
 472 491 492 497 524 517 c 0
 558 538 575 552 603 579 c 0
 624 599 636 613 650 639 c 0
 665 667 671 683 676 715 c 0
 678.666666667 730.333333333 681.333333333 743.444444444 681.333333333 755.814814815 c 0
 681.333333333 762 680.666666667 768 679 774 c 0
 676 776 668 781 661 784 c 0
 630 799 610 802 576 805 c 0
 565.152075172 805.774851773 555.955237338 806.249505911 547.304595316 806.249505911 c 0
 533.62672931 806.249505911 521.314352832 805.062870566 506 802 c 1
 508 798 509 794 509 792 c 0
 494 719 486 684 460 614 c 0
 438 554 423 516 401 464 c 1
EndSplineSet
Validated: 1
EndChar

StartChar: C
Encoding: 67 67 28
Width: 803
VWidth: 0
Flags: W
HStem: -1.25778 55.7993<239.472 414.815> 26 72.5<416.554 500.196> 780.382 53.6028<438.692 605.844>
VStem: 100.59 34.4096<147.014 331.03> 658 35<678.318 741.123>
LayerCount: 2
Back
SplineSet
610.793945312 586 m 0
 606.793945312 616 599.793945312 614 580.793945312 630 c 0
 570.805664062 638.411132812 554.793945312 651 536.793945312 652 c 0
 532.756835938 652.224609375 518.145507812 654.072265625 508.793945312 654 c 0
 488.95703125 653.84765625 467.856445312 648.7578125 447.793945312 643 c 0
 419.747070312 634.950195312 393.271484375 621.40625 368.793945312 602 c 0
 348.469726562 585.88671875 325.155273438 575.427734375 308.793945312 552 c 0
 299.901367188 539.266601562 287.291992188 522.467773438 276.793945312 510 c 0
 250.793945312 462 l 0
 234.793945312 412 l 0
 214.793945312 336 l 0
 209.65234375 305.908203125 202.137695312 275.484375 202.793945312 244 c 0
 204.079101562 182.3984375 201.793945312 100 256.793945312 68 c 0
 270.983398438 59.744140625 297.190429688 47.71484375 312.793945312 46 c 0
 332.728515625 43.8095703125 351.704101562 40.0771484375 372.793945312 42 c 0
 407.97265625 45.2080078125 435.571289062 51.7568359375 468.793945312 58 c 0
 558.793945312 120 l 1025
EndSplineSet
Fore
SplineSet
676 677 m 0xb8
 667 691 658 707 658 714 c 0
 657 725 655 733 655 736 c 1
 648 742 651 748 645 752 c 1
 616 769 597 774 564 777 c 0
 546.360052038 778.556465997 533.026924341 780.38210826 519.67132528 780.38210826 c 0
 507.284764043 780.38210826 494.878874037 778.811780011 479 774 c 0
 439 762 411 746 375 724 c 0
 344 705 331 693 307 664 c 0
 273 624 260 595 233 547 c 0
 209 504 200 478 183 431 c 0
 168 389 159 365 150 322 c 0
 140 278 135 255 135 209 c 0
 135 170 148 156 158 129 c 1
 163 124 166 115 175 108 c 1
 201 87 208 73 241 65 c 1
 268.793654034 57.3567451405 289.345240526 54.5415353097 313.054407996 54.5415353097 c 0
 323.466939589 54.5415353097 334.488495385 55.0845240526 347 56 c 0
 378 59 396 68 426 81 c 0
 453 93 434 84 460 98 c 0
 460.5 98.3333333333 461.416666667 98.5 462.666666667 98.5 c 0
 468.916666667 98.5 483.5 94.3333333333 496 86 c 0
 509.9323702 76.7117532002 527.315601544 65.698075828 527.315601544 62.5747028785 c 0
 527.315601544 62.3353605419 527.21352596 62.14235064 527 62 c 0
 501 49 486 38 459 26 c 0x78
 428 13 411 3 379 0 c 0
 367.901684064 -0.812071897724 357.902469407 -1.25777670263 348.427157616 -1.25777670263 c 0
 322.898259246 -1.25777670263 301.172374697 1.97759695832 272 10 c 0
 239 18 218 28 189 51 c 0
 171 65 135 97 114 155 c 1
 102.44 185.6 100.5904 206.4896 100.5904 228.359488 c 0
 100.5904 238.6512 101 249.16 101 261 c 0
 101 308 106 332 116 376 c 0
 126 419 133 443 148 485 c 0
 165 532 175 559 199 602 c 0
 225 650 242 675 276 715 c 0
 300 744 316 760 347 779 c 0
 383 801 406 811 446 823 c 0
 471.697735651 830.008473359 489.512223342 833.984928272 512.193355376 833.984928272 c 0
 518.638422135 833.984928272 525.476454913 833.663842214 533 833 c 0
 566 830 586 824 617 806 c 1
 637 794 650 782 679 737 c 0
 680 735 680 735 683 728 c 1
 693.831659544 707.239319208 696.719449139 694.218819391 696.719449139 685.261351202 c 0
 696.719449139 675.029202333 692.951294663 670.098731551 692.951294663 664.98898689 c 0
 692.951294663 664.660550424 692.966862671 664.331373295 693 664 c 0
 693 657 685 663 676 677 c 0xb8
EndSplineSet
Validated: 1
EndChar

StartChar: D
Encoding: 68 68 29
Width: 960
VWidth: 0
Flags: W
HStem: -0.339559 37.425<230.263 432.308> 819.039 36.1395<519.228 682.898>
VStem: 823.592 36.8455<458.416 695.359>
LayerCount: 2
Back
SplineSet
309.024414062 706 m 0
 340.858398438 737.876953125 372.721679688 752.650390625 406.024414062 782 c 0
 423.268554688 797.197265625 445.829101562 807.844726562 468.024414062 820.025390625 c 0
 521.024414062 838 l 0
 589.024414062 834 l 0
 659.024414062 828 l 0
 681.131835938 822.549804688 701.077148438 816.586914062 723.024414062 810 c 0
 750.560546875 801.735351562 751.591796875 787.52734375 778.024414062 772 c 4
 792.3515625 763.583984375 808.181640625 741.059570312 818.024414062 720 c 0
 838.576171875 676.029296875 839.451171875 619.991210938 840.024414062 567 c 0
 840.421875 530.275390625 828.970703125 468.385742188 818.024414062 434 c 0
 744.555664062 203.205078125 616.533203125 57.3271484375 370.024414062 20.591796875 c 0
 341.374023438 16.322265625 176.240234375 15.982421875 179.024414062 54 c 0
 118.024414062 120 l 1025
503.024414062 818 m 0
 505.666015625 803.890625 499.024414062 783.012695312 499.024414062 772 c 0
 499.024414062 744.412109375 492.712890625 748.098632812 492.712890625 725 c 0
 492.368164062 715.801757812 479.66015625 686.321289062 477.024414062 678 c 0
 470.2421875 656.591796875 464.286132812 652.63671875 456.000976562 631 c 0
 452.545898438 621.977539062 444.750976562 597.26171875 440.197265625 587 c 0
 434.504882812 574.172851562 432.201171875 563.583984375 424.666992188 543 c 0
 407.725585938 496.712890625 394.544921875 449.559570312 373.196289062 408 c 0
 364.780273438 391.616210938 358.435546875 372.381835938 349.6484375 357 c 0
 324.942382812 313.750976562 307.870117188 262.564453125 279.217773438 228 c 0
 264.125 209.79296875 251.580078125 182.71875 240.036132812 162 c 0
 217.463867188 121.489257812 221.374023438 119.237304688 200.025390625 84 c 0
 179.024414062 54 l 1025
EndSplineSet
Fore
SplineSet
322 714 m 0
 309.639255465 716.852479508 291.8540847 721.513101093 291.8540847 723.683791236 c 0
 291.8540847 723.796051912 291.901653005 723.901653005 292 724 c 0
 322 746 337 761 367 782 c 0
 406 809 421 837 466 845 c 0
 501.128120949 851.323061771 526.384362846 855.178153779 555.986728706 855.178153779 c 0
 568.519218142 855.178153779 581.830683368 854.487187905 597 853 c 0
 650 847 684 843 735 815 c 0
 747 808 758 801 771 791 c 0
 810 760 828 728 840 702 c 0
 861 654 858 623 860 575 c 0
 860.295040984 568.214057373 860.437745899 561.863360656 860.437745899 555.822704853 c 0
 860.437745899 520.915450806 855.672315573 496.361577865 848 458 c 0
 839 411 829 386 811 341 c 0
 796 305 786 284 765 251 c 0
 740 212 726 189 695 156 c 0
 661 120 640 100 599 73 c 0
 565 51 543 42 504 30 c 0
 452 14 421 8 367 2 c 0
 352.748902136 0.459340771462 340.574731273 -0.339558813801 328.934708978 -0.339558813801 c 0
 310.353843799 -0.339558813801 293.134066943 1.69615364994 271 6 c 0
 242 12 225 18 196 37 c 0
 157 63 127 102 117 111 c 0
 107 120 100 130 101 133 c 0
 102 136 110 130 120 121 c 0
 154 91 157 90 167 84 c 1
 182 110 191 126 207 153 c 0
 223 180 233 195 249 223 c 0
 275 267 286 292 308 338 c 0
 337 398 353 433 378 495 c 0
 412 579 432 626 458 713 c 0
 469 749 474 773 479 803 c 1
 450 791 434 768 402 746 c 0
 372 725 385 733 355 711 c 0
 354.333333333 710.333333333 352.222222222 710 349.111111111 710 c 0
 342.888888889 710 332.666666667 711.333333333 322 714 c 0
209 60 m 1
 217 56 226 53 238 51 c 0
 268.311382704 45.1061200298 289.406608788 37.085434686 317.402281158 37.085434686 c 0
 322.656302976 37.085434686 328.153365557 37.3679314115 334 38 c 0
 388 44 417 50 469 66 c 0
 508 78 530 87 564 109 c 0
 605 136 626 156 660 192 c 0
 691 225 705 248 730 287 c 0
 751 320 761 339 776 375 c 0
 794 420 804 445 813 492 c 0
 820.234628196 528.173140978 823.592230826 552.069034334 823.592230826 583.945174516 c 0
 823.592230826 591.72349257 823.392304845 599.976988555 823 609 c 0
 821 657 823 675 804 717 c 0
 791 747 780 752 778 754 c 0
 774 757 763 765 753 771 c 0
 709 795 683 812 630 817 c 0
 614.901586978 818.372583002 601.687158053 819.038671968 589.225371236 819.038671968 c 0
 565.370849898 819.038671968 544.27416998 816.597979746 518 812 c 1
 520 809 521 806 521 805 c 0
 513 755 508 728 493 679 c 0
 467 592 447 545 413 461 c 0
 388 399 372 364 343 304 c 0
 321 258 311 233 285 189 c 0
 269 161 258 146 242 119 c 0
 228 94 222 82 209 60 c 1
EndSplineSet
Validated: 1
EndChar

StartChar: E
Encoding: 69 69 30
Width: 870
VWidth: 0
Flags: W
HStem: 3.21817 48.8583<332.604 514.434> 801.362 36.5582<560.436 681.804>
VStem: 144.962 46.8363<175.196 306>
LayerCount: 2
Back
SplineSet
117.005859375 292 m 0
 201.3125 313.654296875 287.725585938 326.767578125 369.005859375 361 c 0
 446.526367188 377.814453125 517.948242188 418.626953125 597.005859375 427 c 1024
747.005859375 778 m 0
 720.18359375 808.291992188 689.206054688 812.46875 657.005859375 817 c 0
 643.333984375 818.923828125 627.521484375 820 612.005859375 820 c 0
 593.456054688 822.092773438 577.483398438 812.583984375 561.005859375 808 c 0
 528.020507812 793.92578125 494.860351562 782.163085938 465.005859375 760 c 0
 442.956054688 749.212890625 425.78125 727.09765625 408.005859375 706 c 0
 387.634765625 681.989257812 361.8359375 664.059570312 339.005859375 640 c 0
 304.284179688 594.6796875 261.231445312 554.98046875 243.005859375 499 c 0
 214.724609375 451.815429688 196.974609375 404.84765625 180.005859375 355 c 0
 168.784179688 328.475585938 166.068359375 298.993164062 159.005859375 271 c 0
 155.732421875 258.022460938 159.005859375 239.484375 159.005859375 226 c 0
 158.501953125 211.495117188 158.860351562 197.853515625 162.005859375 187 c 0
 175.567382812 148.326171875 184.504882812 100.083007812 216.005859375 76 c 0
 240.36328125 51.154296875 263.172851562 26.5244140625 294.005859375 13 c 0
 329.291015625 0.744140625 362.85546875 -16.931640625 402.005859375 -17 c 0
 528.53125 -17.2197265625 585.999023438 73.1123046875 687.005859375 136 c 0
 723.005859375 172 l 1025
EndSplineSet
Fore
SplineSet
738 758 m 0
 738.016929387 757.864564903 738.02526065 757.731136035 738.02526065 757.599708544 c 0
 738.02526065 753.097425239 728.248296302 750.943812531 719.422551397 750.943812531 c 0
 713.28772267 750.943812531 707.61249695 751.984378813 706 754 c 0
 688 781 697 776 665 792 c 0
 652.845529752 798.302317906 640.691059505 801.362251242 627.441881846 801.362251242 c 0
 611.259271077 801.362251242 593.443542976 796.797350964 572 788 c 0
 535 773 510 768 478 743 c 0
 415 693 379 663 331 599 c 0
 281 533 256 492 226 416 c 0
 218 396 212 380 207 363 c 1
 256 376 302 387 362 404 c 0
 447 428 495 445 580 470 c 0
 583 471 593 463 605 456 c 0
 617 450 629 440 626 439 c 0
 541 414 481 394 396 370 c 0
 317 348 264 335 195 318 c 1
 192.838821814 305.032930885 191.798609505 292.06586177 191.798609505 278.452764122 c 0
 191.798609505 260.571240601 193.593413823 241.575045788 197 220 c 0
 204 177 221 168 240 138 c 0
 263 116 l 0
 284 100 265 114 296 91 c 1
 329 72 336 66 377 58 c 0
 394.909823812 54.7436683978 409.874176651 52.0764309902 424.930344751 52.0764309902 c 0
 437.616132826 52.0764309902 450.367101878 53.9699412707 465 59 c 0
 504 72 512 69 545 89 c 0
 582 112 602 127 636 154 c 0
 658 171 644 158 666 176 c 0
 668 178 682 181 695 178 c 0
 711 174 721 169 719 167 c 0
 697 149 686 139 664 122 c 0
 630 95 613 76 576 53 c 0
 543 33 525 21 487 11 c 0
 467.734550074 5.74578638386 452.558990626 3.21816641948 436.498979471 3.21816641948 c 0
 425.049621774 3.21816641948 413.150748561 4.50280907743 399 7 c 0
 357 15 332 22 293 45 c 0
 259 64 220 93 190 138 c 0
 163.680139892 176.017575712 144.962310358 204.532613205 144.962310358 247.629343558 c 0
 144.962310358 248.7430199 144.974809634 249.866433513 145 251 c 0
 145 271 147 289 149 306 c 1
 146 305 144 305 141 304 c 0
 138 303 127 310 118 319 c 0
 109 328 99 335 102 336 c 0
 122 341 140 346 157 350 c 1
 165 381 176 411 191 449 c 0
 221 525 245 566 296 632 c 0
 345 696 380 727 443 777 c 0
 475 802 499 811 538 822 c 0
 567.59427037 830.566762476 599.614637247 837.920476698 631.226947105 837.920476698 c 0
 640.205865197 837.920476698 649.151863548 837.327220468 658 836 c 0
 699 830 712 828 730 800 c 0
 736 791 736 769 738 758 c 0
EndSplineSet
Validated: 1
EndChar

StartChar: F
Encoding: 70 70 31
Width: 946
VWidth: 0
Flags: W
HStem: 420 36<216.003 265.766> 757 35<339.492 416.249> 776 35<473.126 729.005> 791.932 35<608.382 835.419>
LayerCount: 2
Back
SplineSet
191.025390625 429 m 0
 328.435546875 437.856445312 465.227539062 464.512695312 603.025390625 459 c 1024
274.025390625 798 m 0
 383.1171875 809.19921875 491.38671875 806 601.025390625 806 c 0
 653.838867188 806 729.837890625 798.263671875 766.025390625 793 c 1024
455.025390625 792 m 0
 441.549804688 736.471679688 406.788085938 671.307617188 383.025390625 620 c 0
 326.497070312 497.948242188 270.856445312 374.583984375 215.025390625 252 c 0
 149.025390625 112 l 0
 117.025390625 42 l 1025
EndSplineSet
Fore
SplineSet
336 774 m 0xc0
 327 784 322 792 325 792 c 0xc0
 379 798 406 803 436 806 c 0
 436 807 437 806 437 807 c 0
 438 808 440 808 443 806 c 0
 466 808 490 810 529 811 c 0xa0
 604 814 675 821 750 826 c 0
 758.126757375 826.738796125 765.571240108 826.931772536 772.83751006 826.931772536 c 0x90
 780.785620054 826.931772536 788.520502395 826.700880526 796.701848541 826.700880526 c 0
 801.288803476 826.700880526 806.016099767 826.77345908 811 827 c 0
 815 827 826 820 835 810 c 0
 844 800 849 792 845 792 c 0xc0
 840.016099767 791.77345908 835.340124265 791.700880526 830.832558389 791.700880526 c 0
 822.792811492 791.700880526 815.288821161 791.931772536 807.528957646 791.931772536 c 0x90
 800.434785179 791.931772536 793.126757375 791.738796125 785 791 c 0
 710 786 638 779 563 776 c 0xa0
 521 774 496 772 472 770 c 1
 432 685 405 615 367 529 c 0
 357 506 347 484 338 465 c 1
 359 467 381 469 406 471 c 0
 488 478 530 479 612 488 c 0
 615 488 626 481 635 471 c 0
 644 461 649 452 646 452 c 0
 564 443 522 442 440 435 c 0
 394 431 357 428 319 425 c 1
 298 380 278 338 253 280 c 0
 209 179 184 123 136 23 c 0
 135 20 126 26 116 35 c 0
 106 44 99 54 100 57 c 0
 148 157 173 213 217 314 c 0
 235 355 251 389 266 421 c 1
 258 421 249 420 240 420 c 0
 236 420 225 428 216 438 c 0
 207 448 202 456 206 456 c 0
 235 457 260 459 284 461 c 1
 299 492 314 523 331 563 c 0
 363 635 386 696 417 764 c 1
 401 762 383 760 360 757 c 0
 357 757 345 764 336 774 c 0xc0
EndSplineSet
Validated: 1
EndChar

StartChar: G
Encoding: 71 71 32
Width: 855
VWidth: 0
Flags: W
HStem: 0.822825 38.1081<224.549 377.391> 755 39.4444<549.5 713.356>
VStem: 99.8972 43.0668<111.601 286.873> 556 41.2222<171.171 253.76> 702 36<685.98 738.533>
LayerCount: 2
Back
SplineSet
287.125976562 324 m 0
 355.331054688 355.045898438 497.712890625 361.946289062 582.037109375 394 c 1024
680.646484375 691 m 0
 723.473632812 694.767578125 725.189453125 728.869140625 728.646484375 755 c 0
 728.646484375 775.602539062 651.490234375 779 638.646484375 779 c 0
 416.053710938 779 122.646484375 405.94140625 122.646484375 199 c 0
 122.646484375 110.151367188 212.803710938 55 292.646484375 55 c 0
 409.184570312 55 572.646484375 150.104492188 572.646484375 277 c 0
 572.646484375 298.159179688 542.979492188 299.282226562 528.646484375 307 c 0
 489.646484375 328 499.646484375 316 459.646484375 352 c 1024
EndSplineSet
Fore
SplineSet
712 696 m 0
 705 704 708 701 705 704 c 0
 701 709 701 705 702 717 c 0
 703 727 709 735 712 748 c 0
 712 750 714 755 714 755 c 1
 708 755 703 756 697 756 c 0
 677.575188443 756.863324958 661.690694307 758.099314908 646.450938697 758.099314908 c 0
 626.385898661 758.099314908 607.438513401 755.956725294 583 748 c 0
 533 732 508 714 464 684 c 0
 412 646 385 622 340 575 c 0
 299 532 281 503 249 453 c 0
 213 395 193 362 168 298 c 0
 150 251 144 222 143 171 c 0
 142.975885886 169.963093095 142.963983072 168.943049414 142.963983072 167.939237962 c 0
 142.963983072 127.315500958 162.458168167 113.276576578 181 84 c 0
 182 82 196 66 211 60 c 0
 239.610017481 48.5559930077 252.758854179 38.9309484603 283.405523416 38.9309484603 c 0
 284.894454156 38.9309484603 286.424686478 38.9536672494 288 39 c 0
 323 40 348 46 381 59 c 0
 418 74 439 83 472 106 c 0
 498 125 515 140 533 167 c 0
 552 196 556 196 556 231 c 0
 556 237 547 243 547 243 c 0
 543 247 537 254 525 261 c 0
 501 274 491 287 470 300 c 0
 465 303 451 313 441 322 c 0
 440 322 440 321 439 321 c 0
 385 308 368 302 314 287 c 0
 313.827844932 286.942614977 313.622759456 286.914867322 313.386822254 286.914867322 c 0
 309.511282451 286.914867322 297.311379728 294.401695159 286 301 c 0
 273.782617848 307.57859039 252.7330211 314.157180779 252.7330211 315.755469279 c 0
 252.7330211 315.857852022 252.819395881 315.939798627 253 316 c 0
 307 331 350 346 404 359 c 0
 467 374 482 375 547 388 c 0
 547.172745382 388.057581794 547.388594383 388.085322621 547.643919489 388.085322621 c 0
 551.822723432 388.085322621 566.575817941 380.654509236 576 375 c 0
 587.099407094 368.525345862 603.332015764 356.917490148 603.332015764 354.420306354 c 0
 603.332015764 354.217687783 603.225148227 354.075049409 603 354 c 0
 559 345 528 340 493 333 c 1
 498 329 502 326 513 320 c 0
 520 316 536 307 571 271 c 0
 592.333333333 249 597.222222222 235.888888889 597.222222222 226.333333333 c 0
 597.222222222 221.555555556 596 217.666666667 595 214 c 0
 588 179 581 160 562 131 c 0
 544 104 528 90 501 71 c 0
 468 48 448 37 411 22 c 0
 377 9 358 2 322 1 c 0
 318.087644028 0.884930706696 314.334179362 0.822825182438 310.704562609 0.822825182438 c 0
 282.79130073 0.822825182438 262.202713321 4.49590081295 233 16 c 0
 212 25 167 39 131 94 c 0
 106.748015748 133.176282253 99.8971776546 160.171762195 99.8971776546 198.521742433 c 0
 99.8971776546 201.285902623 99.9327686251 204.109050878 100 207 c 0
 101 259 113 287 131 334 c 0
 157 398 176 432 212 490 c 0
 244 540 263 569 304 612 c 0
 349 659 377 683 429 721 c 0
 473 751 498 770 548 786 c 0
 572.438513401 793.956725294 591.708906199 796.099314908 612.052806704 796.099314908 c 0
 627.504361811 796.099314908 643.575188443 794.863324958 663 794 c 0
 664.117647059 793.941176471 665.21799308 793.916955017 666.306330145 793.916955017 c 0
 671.385236448 793.916955017 676.202614379 794.444444444 681.296296296 794.444444444 c 0
 693.666666667 794.444444444 707.666666667 791.333333333 731 770 c 0
 754 749 755 739 755 739 c 1
 757 729 750 721 748 712 c 0
 745 700 748 690 738 680 c 0
 727 669 741 683 731 673 c 0
 730 672 719 687 712 696 c 0
EndSplineSet
Validated: 1
EndChar

StartChar: H
Encoding: 72 72 33
Width: 923
VWidth: 0
Flags: W
HStem: 430.673 40.183<287 654.431>
VStem: 100 44<-6.51767 61.8904>
LayerCount: 2
Back
SplineSet
273.360351562 438 m 4
 307.575195312 430.381835938 342.834960938 440.627929688 377.360351562 434 c 4
 411.912109375 433.193359375 445.412109375 428.594726562 479.360351562 420 c 4
 515.94921875 420.296875 549.544921875 405.6171875 587.360351562 408 c 4
 604.717773438 409.09375 624.092773438 404 643.360351562 404 c 4
 649.360351562 404 l 4
 661.360351562 410 l 1029
772.360351562 712 m 5
 701.360351562 522 l 4
 662.877929688 393.658203125 599.499023438 279.999023438 557.360351562 154 c 4
 554.673828125 145.967773438 522.360351562 58 522.360351562 58 c 4
 496.360351562 0 l 1029
386.681640625 746 m 5
 254.403320312 394 l 4
 154.360351562 146 l 4
 98.3603515625 0 l 1029
EndSplineSet
Fore
SplineSet
376 868 m 0
 387 857 396 851 395 848 c 0
 361 727 342 659 307 538 c 0
 300 513 293 490 287 469 c 1
 329.773672811 469.689897949 362.076243674 470.855755077 399.997512402 470.855755077 c 0
 417.042733729 470.855755077 435.223162553 470.620204103 456 470 c 0
 539 467 586 462 668 457 c 1
 676 485 684 515 695 551 c 0
 732 676 748 747 782 873 c 0
 783 876 795 864 806 853 c 0
 817 842 824 835 823 832 c 0
 789 706 776 638 738 513 c 0
 727 478 718 449 710 421 c 0
 711 418 711 417 709 417 c 0
 695 371 683 329 665 270 c 0
 637 181 625 129 599 40 c 0
 592 18 589 5 582 -17 c 0
 581 -20 571 -8 560 2 c 0
 549 12 540 21 541 24 c 0
 548 46 551 56 557 78 c 0
 583 167 594 219 622 308 c 0
 636 352 647 387 657 421 c 1
 602 425 560 428 495 430 c 0
 477.925765731 430.480964346 460.446709733 430.672770314 442.757536826 430.672770314 c 0
 386.88960277 430.672770314 328.925765731 428.759517827 275 428 c 1
 256 364 240 307 216 227 c 0
 189 136 172 84 144 -8 c 0
 139 -24 146 -8 140 -22 c 0
 139.916461381 -22.250615857 139.742199651 -22.3686363975 139.486542666 -22.3686363975 c 0
 136.681854771 -22.3686363975 124.081075191 -8.16461381012 114 1 c 0
 103 11 100 16 100 19 c 0
 101 27 97 15 102 30 c 0
 131 122 147 174 174 265 c 0
 210 387 230 455 265 576 c 0
 300 697 319 767 353 888 c 0
 354 891 365 879 376 868 c 0
EndSplineSet
Validated: 1
EndChar

StartChar: I
Encoding: 73 73 34
Width: 909
VWidth: 0
Flags: W
HStem: -11 38<111.997 302.165> 11 38<458.076 647.642> 754 35<282.013 420.774> 759 34<306.959 517 562.826 621.765>
LayerCount: 2
Back
SplineSet
100.995117188 -8 m 5
 274.995117188 -8 l 4
 622.995117188 -10 l 1029
534.995117188 760 m 4
 536.836914062 734.198242188 528.415039062 717.403320312 526.995117188 694 c 4
 526.51953125 686.165039062 524.995117188 693.41796875 524.995117188 688 c 4
 524.995117188 682.666992188 522.995117188 677.333007812 522.995117188 672 c 4
 506.336914062 633.836914062 496.142578125 593.318359375 484.995117188 550 c 4
 480.991210938 534.44140625 476.995117188 515.181640625 476.995117188 502 c 4
 476.995117188 496.666992188 474.995117188 491.333007812 474.995117188 486 c 4
 472.422851562 477.840820312 466.831054688 468.2890625 462.995117188 456 c 4
 460.116210938 446.77734375 452.995117188 433.310546875 452.995117188 424 c 4
 450.291015625 415.154296875 450.9921875 408.08984375 448.995117188 402 c 4
 445.01953125 389.875 442.995117188 377.211914062 442.995117188 364 c 4
 441.922851562 354.606445312 438.752929688 346.73046875 434.995117188 338 c 4
 430.369140625 327.25390625 426.995117188 315.189453125 426.995117188 302 c 4
 426.995117188 289.166992188 412.995117188 274.34375 412.995117188 262 c 4
 412.995117188 257.333007812 410.995117188 252.666992188 410.995117188 248 c 4
 410.995117188 245.209960938 404.995117188 231.096679688 404.995117188 228 c 4
 404.995117188 223.333007812 402.995117188 218.666992188 402.995117188 214 c 4
 402.995117188 208.671875 396.995117188 204.217773438 396.995117188 198 c 4
 396.995117188 193.333007812 394.995117188 188.666992188 394.995117188 184 c 4
 389.88671875 174.498046875 388.172851562 162.516601562 386.995117188 148 c 4
 380.553710938 130.072265625 383.102539062 109.380859375 378.995117188 88 c 4
 372.391601562 53.623046875 366.099609375 33.0966796875 358.995117188 6 c 4
 354.995117188 2 l 1029
298.995117188 788 m 5
 414.995117188 786 l 4
 532.995117188 782 l 4
 634.995117188 786 l 4
 694.995117188 790 l 4
 740.995117188 788 l 4
 746.995117188 786 l 4
 806.995117188 784 l 1029
EndSplineSet
Fore
SplineSet
279 770 m 0x20
 270 779 265 789 269 789 c 0x20
 361 790 333 789 425 793 c 0
 530 798 668 801 773 807 c 0
 777 807 787 800 797 791 c 0
 807 782 812 774 808 774 c 0
 713 768 656 765 567 761 c 1
 537 626 514 520 481 384 c 0
 454 272 440 208 412 97 c 0
 407 75 403 59 398 41 c 1
 480 44 534 45 625 49 c 0
 629 49 640 37 650 28 c 0
 660 19 664 11 660 11 c 0x50
 557 7 499 3 396 -1 c 0
 295 -5 238 -7 137 -11 c 0
 133 -11 122 -4 112 5 c 0
 102 14 95 27 99 27 c 0
 193 31 253 35 342 39 c 1
 349 69 359 102 366 130 c 0
 395 241 413 304 440 416 c 0
 472 547 489 632 517 759 c 1x90
 438 756 388 755 303 754 c 0
 299 754 288 761 279 770 c 0x20
EndSplineSet
Validated: 1
EndChar

StartChar: J
Encoding: 74 74 35
Width: 900
VWidth: 0
Flags: W
HStem: 3.87382 44.0765<221.98 315.673> 756 36<289.148 537 579 782.556>
VStem: 99.7275 38.2725<121.103 214.563>
LayerCount: 2
Back
SplineSet
560.7890625 754 m 4
 551.875 737.1953125 553.03125 732.223632812 548.7890625 724 c 4
 545.552734375 717.725585938 540.7890625 707.219726562 540.7890625 696 c 4
 540.7890625 695.998046875 534.7890625 684.534179688 534.7890625 684 c 4
 534.7890625 667.421875 524.7890625 658.16796875 524.7890625 642 c 4
 524.7890625 641.998046875 518.7890625 632.20703125 518.7890625 632 c 4
 518.7890625 626.666992188 516.7890625 621.333007812 516.7890625 616 c 4
 516.7890625 606.698242188 504.7890625 591.674804688 504.7890625 578 c 4
 504.7890625 578 498.7890625 565.9375 498.7890625 564 c 4
 498.7890625 559.333007812 496.7890625 554.666992188 496.7890625 550 c 4
 496.7890625 544.06640625 486.7890625 531.524414062 486.7890625 526 c 4
 486.7890625 521.333007812 484.7890625 516.666992188 484.7890625 512 c 4
 484.7890625 502.022460938 470.7890625 479.66796875 470.7890625 472 c 4
 470.7890625 466.829101562 466.7890625 457.438476562 466.7890625 456 c 4
 466.7890625 450.686523438 462.7890625 441.549804688 462.7890625 440 c 4
 462.7890625 434.666992188 460.7890625 429.333007812 460.7890625 424 c 4
 460.7890625 403.721679688 430.7890625 377.092773438 430.7890625 356 c 4
 430.7890625 345.473632812 422.7890625 336.82421875 422.7890625 330 c 4
 422.58203125 322.666992188 419.579101562 315.333007812 420.7890625 308 c 4
 422.912109375 295.135742188 412.7890625 282.171875 412.7890625 268 c 4
 401.84375 243.293945312 394.591796875 217.337890625 384.7890625 192 c 4
 382.154296875 185.188476562 380.7890625 174.615234375 380.7890625 166 c 4
 380.7890625 164.22265625 374.7890625 154.317382812 374.7890625 152 c 4
 374.7890625 147.333007812 372.7890625 142.666992188 372.7890625 138 c 4
 366.813476562 132.688476562 367.502929688 119.827148438 362.7890625 114 c 4
 346.666992188 59.3515625 317.84765625 10.6181640625 254.7890625 12 c 4
 230.27734375 8.513671875 217.459960938 18.3896484375 202.7890625 28 c 4
 190.7734375 40.57421875 175.883789062 45.373046875 160.7890625 56 c 4
 146.791992188 65.8544921875 118.7890625 85.8427734375 118.7890625 106 c 4
 118.7890625 110.666992188 116.7890625 115.333007812 116.7890625 120 c 4
 108.07421875 130.680664062 111.50390625 146.09765625 110.7890625 164 c 4
 111.091796875 178.573242188 108.734375 193.33984375 116.7890625 202 c 1028
283.7890625 762 m 4
 322.206054688 759.641601562 328.540039062 759.040039062 357.7890625 759 c 4
 424.7890625 758 l 4
 620.7890625 762 l 4
 734.7890625 762 l 4
 755.7890625 762 l 4
 777.7890625 764 l 1029
EndSplineSet
Fore
SplineSet
285 778 m 0
 276 787 262 795 266 795 c 0
 333 794 380 794 447 793 c 0
 515 792 552 792 620 792 c 0
 674 792 699 794 753 795 c 0
 757 795 765 789 777 779 c 0
 787 770 803 758 799 758 c 0
 745 757 707 756 653 756 c 0
 625 756 601 756 579 756 c 1
 580 754 581 752 581 751 c 0
 565 702 558 674 542 625 c 0
 528 580 519 554 505 509 c 0
 491 464 486 437 472 391 c 0
 458 346 450 320 436 275 c 0
 420 224 413 193 397 142 c 0
 390 120 386 108 377 86 c 0
 370 70 367 59 357 44 c 0
 348 32 344 24 330 17 c 0
 313.521432946 8.7607164732 302.071443155 3.87381778763 284.141176792 3.87381778763 c 0
 282.485711369 3.87381778763 280.775005104 3.91547594742 279 4 c 0
 259 5 245 14 229 22 c 0
 210 32 194 36 163 66 c 0
 139 89 121 111 109 136 c 0
 99 156 101 167 100 185 c 0
 99.8090169944 188.246711096 99.7274575141 191.274575141 99.7274575141 194.16718427 c 0
 99.7274575141 206.420473174 101.190983006 216.246711096 102 230 c 0
 102 234 114 219 124 210 c 0
 134 201 138 195 138 191 c 0
 137.809016994 187.753288904 137.727457514 184.94427191 137.727457514 182.405764747 c 0
 137.727457514 171.652475842 139.190983006 165.753288904 140 152 c 0
 141 134 156 123 165 112 c 0
 180 94 180 96 192 85 c 0
 197 81 203 73 227 61 c 0
 246 51 245 50 264 49 c 0
 272.633249581 48.568337521 276.235521775 47.9503425461 279.069752176 47.9503425461 c 0
 282.801370184 47.9503425461 285.201587102 49.0216373532 296 53 c 0
 310 58 314 68 323 80 c 0
 333 95 335 105 342 121 c 0
 351 143 355 155 362 177 c 0
 378 228 385 259 401 310 c 0
 415 355 423 381 437 426 c 0
 451 472 456 499 470 544 c 0
 484 589 493 615 507 660 c 0
 519 699 527 723 537 756 c 1
 520 756 501 757 480 757 c 0
 413 758 375 759 308 760 c 0
 304 760 295 768 285 778 c 0
EndSplineSet
Validated: 1
EndChar

StartChar: K
Encoding: 75 75 36
Width: 871
VWidth: 0
Flags: HW
LayerCount: 2
Back
SplineSet
307.204101562 388 m 0
 349.146484375 360.50390625 379.774414062 322.928710938 407.204101562 282 c 0
 419.336914062 260.950195312 422.39453125 236.87109375 431.204101562 214 c 0
 435.001953125 204.140625 440.284179688 194.172851562 439.204101562 182 c 0
 455.204101562 132 l 0
 469.204101562 86 l 0
 475.204101562 42 l 0
 479.204101562 22 l 1025
321.204101562 404 m 0
 360.841796875 413.478515625 392.571289062 435.208984375 425.204101562 458 c 0
 482.719726562 489.223632812 534.846679688 527.603515625 589.204101562 562 c 0
 615.612304688 581.122070312 639.966796875 592.627929688 663.204101562 612 c 0
 677.18359375 620.306640625 683.853515625 626.93359375 697.204101562 638 c 0
 711.55078125 649.891601562 743.204101562 672 743.204101562 672 c 1025
511.204101562 790 m 0
 456.5859375 806.603515625 514.768554688 751.907226562 497.204101562 770 c 0
 475.204101562 728 l 0
 457.204101562 684 l 0
 443.204101562 644 l 0
 438.881835938 631.2109375 431.291992188 619.537109375 427.204101562 606 c 0
 411.190429688 576.6484375 401.502929688 552.3046875 383.204101562 528 c 0
 369.69140625 510.051757812 360.715820312 498.23046875 345.204101562 478 c 0
 323.204101562 436 l 0
 297.204101562 390 l 0
 265.204101562 332 l 0
 249.204101562 292 l 0
 221.204101562 232 l 0
 193.204101562 188 l 0
 161.204101562 120 l 0
 135.204101562 64 l 0
 132.016601562 55.9765625 124.36328125 50.9248046875 123.204101562 40 c 0
 120.313476562 12.734375 103.204101562 8 103.204101562 8 c 1025
EndSplineSet
Fore
SplineSet
476.926757812 868 m 0
 487.926757812 858 495.926757812 848 494.926757812 845 c 0
 470.926757812 781 465.926757812 755 440.926757812 692 c 0
 418.926757812 637 405.926757812 605 380.926757812 551 c 0
 367.926757812 524 356.926757812 503 346.926757812 482 c 1
 355.926757812 487 364.926757812 493 375.926757812 500 c 0
 412.926757812 523 440.926757812 533 475.926757812 560 c 0
 505.926757812 583 532.926757812 598 562.926757812 622 c 0
 590.926757812 645 601.926757812 655 628.926757812 676 c 0
 661.926757812 702 674.926757812 711 699.926757812 732 c 0
 719.926757812 750 723.926757812 744 742.926757812 762 c 0
 744.926757812 764 741.926757812 762 755.926757812 758 c 0
 772.926757812 754 771.926757812 752 769.926757812 750 c 0
 750.926757812 732 738.926757812 723 718.926757812 705 c 0
 693.926757812 684 680.926757812 671 655.926757812 650 c 0
 627.926757812 627 614.926757812 616 586.926757812 593 c 0
 556.926757812 569 539.926757812 554 509.926757812 531 c 0
 474.926757812 505 452.926757812 492 415.926757812 469 c 0
 384.926757812 449 364.926757812 440 331.926757812 421 c 0
 329.926757812 420 328.926757812 417 319.926757812 424 c 1
 318.926757812 422 316.926757812 419 315.926757812 417 c 0
 317.926757812 416 l 0
 338.926757812 394 373.926757812 367 403.926757812 324 c 0
 432.926757812 283 440.926757812 258 460.926757812 216 c 0
 478.926757812 179 485.926757812 156 499.926757812 119 c 0
 514.926757812 80 520.926757812 59 532.926757812 21 c 0
 534.926757812 16 528.926757812 13 511.926757812 13 c 0
 497.926757812 13 481.926757812 8 480.926757812 13 c 0
 471.926757812 52 459.926757812 102 444.926757812 140 c 0
 430.926757812 177 428.926757812 196 411.926757812 231 c 0
 391.926757812 274 382.926757812 301 358.926757812 335 c 0
 339.926757812 363 337.926757812 374 310.926757812 405 c 1
 309.926757812 403 309.926757812 402 308.926757812 400 c 0
 287.926757812 353 280.926757812 324 260.926757812 276 c 0
 239.926757812 224 225.926757812 195 203.926757812 144 c 0
 183.926757812 99 189.926757812 115 170.926757812 71 c 0
 161.926757812 50 150.926757812 18 142.926757812 -3 c 0
 141.926757812 -6 130.926757812 13 121.926757812 24 c 0
 112.926757812 36 98.9267578125 52 99.9267578125 55 c 0
 107.926757812 76 109.926757812 87 119.926757812 108 c 0
 139.926757812 152 131.926757812 136 151.926757812 181 c 0
 174.926757812 232 188.926757812 258 209.926757812 310 c 0
 229.926757812 358 246.926757812 388 267.926757812 435 c 0
 293.926757812 495 312.926757812 527 339.926757812 587 c 0
 364.926757812 641 377.926757812 676 399.926757812 731 c 0
 424.926757812 794 434.926757812 816 458.926757812 880 c 0
 459.926757812 883 465.926757812 878 476.926757812 868 c 0
EndSplineSet
EndChar

StartChar: L
Encoding: 76 76 37
Width: 808
VWidth: 0
Flags: HW
LayerCount: 2
Back
SplineSet
543.543945312 906 m 5
 467.543945312 706 l 0
 450.5703125 666.627929688 444.725585938 624.76953125 427.543945312 586 c 0
 403.665039062 534.45703125 396.228515625 476.25 365.543945312 430 c 0
 349.21875 404.044921875 337.572265625 375.232421875 321.543945312 350 c 0
 300.3046875 301.216796875 266.985351562 256.830078125 251.543945312 208 c 0
 228.896484375 150.340820312 207.65625 89.3056640625 161.543945312 50 c 0
 150.995117188 32.0166015625 89.8564453125 -21.8515625 127.543945312 -2 c 0
 131.399414062 0.0302734375 191.543945312 0 191.543945312 0 c 0
 283.543945312 0 l 0
 335.543945312 6 l 0
 450.543945312 6 l 0
 484.985351562 2.2451171875 514.635742188 14.7421875 547.543945312 7 c 0
 586.4765625 -2.1591796875 614.543945312 13 651.543945312 12 c 1024
EndSplineSet
Fore
SplineSet
524 860 m 4
 534 851 537 845 536 842 c 4
 511 776 519 803 495 737 c 4
 465 655 450 610 417 529 c 4
 391 465 380 428 351 365 c 4
 327 312 310 281 284 229 c 4
 263 186 250 157 223 118 c 4
 206 94 196 70 182 48 c 5
 400 46 l 4
 449 46 477 43 526 46 c 4
 568 49 632 44 673 49 c 4
 676 49 687 42 696 32 c 4
 705 22 710 13 707 13 c 4
 666 8 602 13 560 10 c 4
 511 6 483 10 434 10 c 4
 172 4 l 4
 157 2 150 0 114 0 c 4
 80 0 113 52 138 88 c 4
 165 127 226 224 248 264 c 4
 276 315 291 346 315 399 c 4
 343 462 355 500 381 564 c 4
 413 645 433 689 463 771 c 4
 487 837 479 806 504 872 c 4
 505 875 514 869 524 860 c 4
EndSplineSet
EndChar

StartChar: M
Encoding: 77 77 38
Width: 915
VWidth: 0
Flags: HW
LayerCount: 2
Back
SplineSet
464.069335938 662 m 1
 470.069335938 574 l 0
 484.65625 518.696289062 489.158203125 461.560546875 490.069335938 404 c 0
 490.249023438 392.641601562 490.915039062 346.459960938 500.069335938 344 c 0
 546.069335938 392 l 0
 634.069335938 506 l 0
 690.069335938 584 l 0
 700.939453125 592.90234375 704.619140625 606.9453125 716.069335938 616 c 0
 720.314453125 619.357421875 743.31640625 654 750.069335938 654 c 0
 752.987304688 654 752.069335938 649.185546875 752.069335938 646 c 0
 749.243164062 596.96484375 726.265625 550.897460938 718.069335938 502 c 0
 686.356445312 341.9609375 621.658203125 190.827148438 596.069335938 30 c 1024
454.069335938 668 m 1
 418.069335938 572 l 0
 408.069335938 552 l 0
 362.069335938 422 l 0
 274.069335938 220 l 0
 236.069335938 146 l 0
 231.95703125 130.63671875 221.942382812 120.857421875 218.069335938 106 c 0
 207.338867188 80.94921875 194.84765625 56.4169921875 186.069335938 32 c 0
 177.301757812 23.041015625 172.42578125 6.2314453125 164.069335938 -4 c 1024
1146.06933594 688 m 0
 1147.20410156 663.538085938 1151.64160156 585.646484375 1184.06933594 616 c 0
 1202.50292969 627.197265625 1215.6875 643.232421875 1230.06933594 660 c 0
 1241.01855469 672.764648438 1253.91699219 684.3125 1266.06933594 694 c 0
 1244.06933594 598 l 0
 1222.06933594 524 l 1025
1138.06933594 692 m 0
 1132.71777344 637.118164062 1109.20800781 584.400390625 1106.06933594 528 c 0
 1094.06933594 494 l 1025
EndSplineSet
Fore
SplineSet
118 8 m 4
 107 19 99 32 100 35 c 4
 129 97 146 132 174 194 c 4
 205 263 223 303 253 373 c 4
 281 436 297 472 323 535 c 4
 344 586 352 617 372 669 c 4
 399 737 416 808 432 842 c 4
 435 849 430 870 461 842 c 4
 512 796 497 690 501 658 c 4
 507 610 511 580 514 530 c 4
 515 518 515 501 515 486 c 5
 531 505 539 511 561 538 c 4
 595 579 605 600 637 643 c 4
 666 683 686 712 717 751 c 4
 736 775 760 842 785 825 c 4
 820 802 818 776 818 776 c 4
 806 719 798 682 784 617 c 4
 771 557 765 523 750 463 c 4
 740 419 733 395 719 351 c 4
 699 288 690 253 674 189 c 4
 658 124 646 70 634 3 c 4
 633 -1 623 5 612 16 c 4
 601 27 591 40 592 44 c 4
 604 111 616 165 633 230 c 4
 649 294 658 330 678 393 c 4
 692 437 698 460 708 504 c 4
 723 565 730 598 743 659 c 4
 746 674 748 686 751 699 c 5
 725 666 706 637 679 601 c 4
 648 558 636 537 602 496 c 4
 571 459 567 458 536 419 c 4
 534 416 534 392 496 433 c 4
 454 478 474 540 472 570 c 4
 470 619 466 650 460 698 c 4
 458 713 457 728 456 752 c 5
 444 717 430 671 413 627 c 4
 393 575 385 545 364 494 c 4
 338 431 323 394 295 331 c 4
 265 261 247 221 216 152 c 4
 188 90 171 55 142 -7 c 4
 141 -10 129 -3 118 8 c 4
EndSplineSet
EndChar

StartChar: N
Encoding: 78 78 39
Width: 922
VWidth: 0
Flags: HW
LayerCount: 2
Back
SplineSet
124.084960938 18 m 0
 146.73046875 22.6123046875 135.850585938 46.0185546875 150.084960938 52 c 0
 176.084960938 100 l 0
 208.084960938 160 l 0
 238.084960938 202 l 0
 262.084960938 252 l 0
 284.084960938 298 l 0
 312.084960938 356 l 0
 360.084960938 434 l 0
 392.084960938 486 l 0
 422.084960938 538 l 0
 464.084960938 604 l 0
 471.991210938 614.471679688 481.2734375 623.186523438 486.084960938 638 c 0
 489.091796875 647.2578125 494.515625 659.583007812 500.084960938 670 c 0
 520.084960938 716 l 0
 548.084960938 768 l 1025
544.084960938 764 m 1
 508.084960938 640 l 0
 486.084960938 522 l 0
 482.985351562 492.94921875 471.823242188 466.118164062 476.084960938 438 c 0
 477.58203125 428.119140625 473.39453125 393.704101562 470.084960938 386 c 0
 460.084960938 324 l 0
 454.084960938 252 l 0
 448.084960938 178 l 0
 448.084960938 116 l 0
 449.172851562 113.008789062 452.084960938 105.877929688 452.084960938 104 c 0
 452.084960938 90 l 0
 458.950195312 62.064453125 471.528320312 39.1572265625 508.084960938 42 c 0
 540.357421875 41.470703125 561.568359375 54.1650390625 580.084960938 82 c 0
 589.369140625 92.3173828125 596.283203125 104.69921875 608.084960938 120 c 0
 630.142578125 149.168945312 648.829101562 176.072265625 660.084960938 212 c 0
 668.383789062 238.493164062 678.62890625 269.723632812 688.084960938 298 c 0
 708.084960938 356 l 0
 744.084960938 460 l 0
 760.084960938 516 l 0
 780.084960938 576 l 0
 782.084960938 586 l 0
 798.084960938 646 l 0
 820.084960938 738 l 0
 822.084960938 746 l 1025
EndSplineSet
Fore
SplineSet
116.936523438 -6 m 0
 106.936523438 4 98.9365234375 14 99.9365234375 17 c 0
 131.936523438 80 150.936523438 115 181.936523438 178 c 0
 210.936523438 238 225.936523438 273 254.936523438 333 c 0
 281.936523438 390 296.936523438 424 324.936523438 480 c 0
 347.936523438 526 362.936523438 549 386.936523438 595 c 0
 417.936523438 655 428.936523438 691 458.936523438 751 c 0
 469.936523438 774 494.936523438 857 500.936523438 824 c 0
 504.936523438 801 507.936523438 787 507.936523438 787 c 1
 502.936523438 745 501.936523438 715 492.936523438 680 c 0
 479.936523438 628 486.936523438 615 477.936523438 562 c 0
 468.936523438 511 472.936523438 483 467.936523438 431 c 0
 462.936523438 386 458.936523438 360 456.936523438 315 c 0
 454.936523438 273 455.936523438 250 456.936523438 208 c 0
 457.936523438 161 456.936523438 133 474.936523438 89 c 0
 481.936523438 72 501.936523438 52 509.936523438 41 c 1
 521.936523438 44 526.936523438 47 536.936523438 60 c 0
 558.936523438 89 569.936523438 102 587.936523438 132 c 0
 617.936523438 182 628.936523438 212 648.936523438 269 c 0
 669.936523438 326 677.936523438 359 693.936523438 419 c 0
 710.936523438 483 716.936523438 520 732.936523438 583 c 0
 747.936523438 640 756.936523438 672 770.936523438 729 c 0
 778.936523438 762 771.936523438 747 779.936523438 781 c 0
 780.936523438 784 789.936523438 779 800.936523438 769 c 0
 811.936523438 759 822.936523438 748 821.936523438 745 c 0
 813.936523438 712 817.936523438 728 809.936523438 694 c 0
 795.936523438 637 790.936523438 603 775.936523438 546 c 0
 759.936523438 483 751.936523438 447 734.936523438 383 c 0
 719.936523438 324 707.936523438 291 686.936523438 233 c 0
 665.936523438 176 655.936523438 143 624.936523438 93 c 0
 605.936523438 63 602.936523438 52 580.936523438 25 c 0
 569.936523438 12 541.936523438 -30 491.936523438 18 c 0
 453.936523438 55 431.936523438 94 426.936523438 122 c 0
 417.936523438 169 418.936523438 195 417.936523438 242 c 0
 416.936523438 284 416.936523438 308 418.936523438 350 c 0
 420.936523438 395 423.936523438 421 428.936523438 466 c 0
 433.936523438 516 433.936523438 543 441.936523438 592 c 1
 436.936523438 583 430.936523438 571 424.936523438 559 c 0
 401.936523438 513 385.936523438 490 362.936523438 444 c 0
 334.936523438 388 319.936523438 354 292.936523438 297 c 0
 263.936523438 237 248.936523438 203 219.936523438 143 c 0
 188.936523438 80 169.936523438 44 137.936523438 -19 c 0
 136.936523438 -22 126.936523438 -16 116.936523438 -6 c 0
EndSplineSet
EndChar

StartChar: O
Encoding: 79 79 40
Width: 800
VWidth: 0
Flags: HW
LayerCount: 2
Fore
SplineSet
352 773 m 1
 347 781 l 0
 330 807 l 1
 357 820 382 819 404 828 c 0
 413 831 422 834 433 837 c 0
 462 841 487 847 510 847 c 0
 530 847 550 844 574 831 c 0
 597 820 634 801 671 737 c 0
 686 711 696 694 698 673 c 0
 699 659 700 644 700 631 c 0
 700 587 692 549 682 498 c 0
 670 426 657 387 635 318 c 0
 612 246 602 215 564 156 c 0
 526 99 500 70 449 46 c 0
 404 23 369 0 326 0 c 0
 316 0 304 2 293 5 c 0
 249 16 204 23 149 112 c 0
 139 126 131 139 125 153 c 1
 105 196 100 230 100 266 c 0
 100 300 106 335 112 376 c 0
 123 458 143 501 179 567 c 0
 219 644 245 688 304 738 c 0
 320 751 331 760 348 770 c 1
 374 781 352 773 352 773 c 1
532 791 m 1
 532 791 535 789 535 788 c 0
 555 765 563 744 564 741 c 0
 565 735 565 731 565 727 c 0
 565 717 564 709 564 700 c 0
 564 697 564 696 564 693 c 1
 524 743 l 1
 524 749 524 760 524 761 c 1
 515 761 509 760 500 757 c 0
 485 753 472 750 459 746 c 0
 417 733 385 720 342 684 c 0
 284 634 259 589 219 512 c 0
 182 446 162 406 151 324 c 0
 147 297 145 272 145 251 c 0
 145 207 154 169 171 130 c 1
 175 123 180 116 181 115 c 0
 185 108 203 75 258 59 c 0
 273 55 287 53 299 53 c 0
 336 53 366 68 408 88 c 0
 459 112 514 155 547 215 c 0
 587 289 594 314 617 386 c 0
 638 455 647 474 658 547 c 0
 663 586 667 606 667 627 c 0
 667 643 665 660 661 687 c 0
 659 703 640 723 639 727 c 1
 628 746 621 760 603 770 c 0
 579 781 561 791 540 791 c 0
 538 791 534 791 532 791 c 1
EndSplineSet
EndChar

StartChar: P
Encoding: 80 80 41
Width: 848
VWidth: 0
Flags: HW
LayerCount: 2
Fore
SplineSet
174 32 m 0
 170 21 162 6 161 5 c 2
 148 -20 l 2
 148 -19 114 24 114 25 c 0
 160 115 201 211 242 307 c 1
 238 310 232 316 225 322 c 0
 215 332 206 339 209 340 c 0
 226 344 244 348 261 352 c 1
 321 496 380 639 448 771 c 0
 449 774 459 768 470 759 c 0
 481 750 488 739 487 736 c 0
 425 615 365 490 309 362 c 1
 499 405 674 457 707 641 c 0
 715 686 698 720 698 720 c 1
 689 748 567 813 526 815 c 0
 525 815 l 0
 337 850 216 621 128 480 c 0
 126 478 118 502 114 516 c 0
 110 530 107 546 109 548 c 0
 197 689 296 886 490 851 c 1
 530 849 619 832 691 774 c 0
 735 738 748 711 748 689 c 0
 753 446 505 365 288 314 c 1
 248 221 210 126 174 32 c 0
EndSplineSet
EndChar

StartChar: Q
Encoding: 81 81 42
Width: 869
VWidth: 0
Flags: HW
LayerCount: 2
Back
SplineSet
481.107421875 295.954101562 m 0
 503.560546875 295.02734375 519.638671875 314.26171875 541.669921875 312.573242188 c 0
 599.05078125 320.737304688 618.583984375 269.323242188 619.829101562 222.466796875 c 0
 621.266601562 168.387695312 642.98828125 56 686.98828125 18 c 4
 750.98828125 46 l 1029
679.612304688 840.500976562 m 0
 666.198242188 849.635742188 652.475585938 847.6015625 638.768554688 846.134765625 c 0
 624.290039062 846.772460938 612.018554688 839.830078125 599.862304688 833.873046875 c 0
 587.749023438 827.936523438 569.940429688 824.596679688 556.764648438 823.168945312 c 0
 538.869140625 821.23046875 l 0
 515.010742188 817.09375 495.047851562 807.344726562 472.98828125 798 c 0
 445.09375 789.022460938 424.467773438 764.990234375 397.546875 751.604492188 c 0
 348.501953125 715.012695312 298.5390625 678.985351562 259.620117188 632.053710938 c 0
 200.549804688 576.045898438 153.797851562 506.017578125 128.751953125 428.776367188 c 0
 104.02734375 368.629882812 87.7734375 306.715820312 92.6796875 241.803710938 c 0
 77.0322265625 107.865234375 183.40625 -15.37890625 321.5078125 5.072265625 c 0
 360.05859375 7.1259765625 394.931640625 23.283203125 430.702148438 37.0185546875 c 0
 569.639648438 81.0380859375 638.170898438 211.0234375 689.935546875 336.682617188 c 0
 709.84375 385.186523438 724.73046875 436.197265625 742.24609375 485.1796875 c 0
 756.234375 535.89453125 766.780273438 586.99609375 759.677734375 639.958007812 c 0
 755.02734375 674.631835938 754.07421875 710.247070312 750.249023438 745.556640625 c 0
 744.84375 795.451171875 692.737304688 843.934570312 643.606445312 838.612304688 c 0
 578.3984375 815.506835938 526.275390625 767.645507812 472.7890625 725.556640625 c 1024
EndSplineSet
Fore
SplineSet
620 746 m 0
 568 747 536 746 489 726 c 0
 437 704 413 702 368 667 c 0
 318 629 301 606 256 554 c 0
 213 504 214 477 190 424 c 0
 171 382 162 344 155 298 c 0
 146 244 143 214 154 161 c 0
 159 136 168 117 175 102 c 0
 182 88 182 90 189 84 c 0
 222 57 243 44 298 39 c 0
 340 35 364 48 402 68 c 0
 448 92 470 114 507 150 c 0
 516 159 524 167 532 174 c 1
 529 181 525 188 521 196 c 0
 516 204 512 206 507 212 c 1
 497 213 488 221 471 216 c 0
 449 209 440 200 420 190 c 0
 417 189 405 194 393 200 c 0
 369 211 363 208 366 209 c 0
 386 219 407 235 429 242 c 0
 448 248 459 258 491 246 c 0
 527 233 547 214 558 199 c 1
 570 212 580 226 592 248 c 0
 616 294 627 322 645 370 c 0
 658 406 665 426 673 464 c 0
 683 511 688 537 692 584 c 0
 695 627 698 630 691 672 c 0
 688 694 671 713 667 720 c 0
 660 726 647 746 620 746 c 0
594 795 m 0
 622 795 644 798 682 759 c 0
 725 715 720 685 724 661 c 0
 731 618 728 592 725 549 c 0
 721 501 716 476 706 429 c 0
 698 391 691 371 678 335 c 0
 660 287 651 259 626 213 c 0
 612 188 598 168 583 150 c 1
 593 127 600 107 613 81 c 0
 627 53 624 57 645 32 c 0
 647 30 654 24 656 22 c 0
 659 19 663 18 664 16 c 0
 683 22 681 25 700 38 c 0
 702 40 708 41 730 31 c 0
 742 26 752 21 750 19 c 0
 728 4 718 -21 689 -23 c 0
 685 -23 671 -24 644 -5 c 0
 617 14 617 25 612 30 c 0
 612 31 l 0
 592 55 576 70 562 99 c 0
 559 106 556 112 554 118 c 1
 549 113 544 107 538 102 c 0
 501 66 483 47 436 27 c 0
 397 10 372 -2 329 2 c 0
 275 6 239 11 187 54 c 0
 158 78 138 107 128 127 c 0
 118 148 113 168 108 193 c 0
 97 247 98 281 107 335 c 0
 114 381 121 433 140 475 c 0
 164 528 167 553 211 598 c 0
 259 647 271 675 321 714 c 0
 366 749 395 760 447 782 c 0
 495 803 543 796 594 795 c 0
EndSplineSet
EndChar

StartChar: R
Encoding: 82 82 43
Width: 776
VWidth: 0
Flags: HWO
LayerCount: 2
Back
SplineSet
124.614257812 642.005859375 m 4
 142.930664062 681.485351562 173.501953125 712.334960938 207.920898438 737.341796875 c 4
 296.333984375 801.578125 365.37109375 832.446289062 480.063476562 822.7734375 c 4
 565.95703125 815.529296875 666.361328125 747.083984375 658.274414062 651.190429688 c 4
 645.763671875 572.311523438 560.154296875 544.708007812 498.68359375 508.095703125 c 4
 455.326171875 489.11328125 414.151367188 465.599609375 372.805664062 443.4453125 c 4
 355.140625 433.98046875 262.702148438 387.354492188 261.118164062 368.56640625 c 4
 315.157226562 344.006835938 373.8671875 313.279296875 395.784179688 251.836914062 c 4
 414.377929688 199.712890625 448.061523438 134.950195312 475.092773438 85.583984375 c 4
 507.940429688 46.685546875 l 1029
374.354492188 747.390625 m 4
 376.305664062 704.891601562 361.306640625 665.918945312 346.081054688 626.338867188 c 4
 324.235351562 574.630859375 300.640625 528.373046875 279.162109375 475.428710938 c 4
 237.63671875 393.481445312 219.948242188 299.98828125 182.241210938 218.665039062 c 4
 178.892578125 211.442382812 144.452148438 137.421875 148.025390625 134.2421875 c 4
 122.309570312 79.208984375 l 4
 119.068359375 76.4716796875 l 1029
EndSplineSet
Fore
SplineSet
115 628 m 0
 110 641 98 647 100 649 c 0
 132 690 146 723 183 759 c 0
 218 793 242 808 285 829 c 0
 323 848 347 854 389 859 c 0
 428 864 452 866 491 855 c 0
 530 843 557 834 600 793 c 0
 639 756 669 719 674 676 c 0
 680 629 670 597 646 559 c 0
 624 523 596 518 562 495 c 0
 522 469 498 457 456 434 c 0
 424 417 404 410 372 391 c 0
 339 371 312 364 283 346 c 1
 288 344 297 335 303 331 c 0
 304 331 l 0
 314 324 348 306 376 264 c 0
 402 226 416 209 430 179 c 0
 442 153 450 135 462 108 c 0
 477 75 505 51 525 29 c 0
 536 17 518 33 549 8 c 0
 560 -1 591 -15 586 -15 c 0
 581 -15 514 -38 503 -29 c 0
 497 -24 481 -3 460 20 c 0
 434 49 411 95 398 125 c 0
 386 150 383 163 371 190 c 0
 355 225 349 235 336 255 c 0
 332 258 319 274 309 281 c 2
 309 281 278 309 258 330 c 1
 248 298 239 269 226 230 c 0
 210 183 198 158 180 112 c 0
 164 71 156 46 140 5 c 0
 139 2 130 9 120 19 c 0
 110 29 103 40 104 43 c 0
 120 84 132 107 148 148 c 0
 166 194 178 219 194 266 c 0
 213 323 224 357 244 414 c 0
 264 471 269 504 292 560 c 0
 313 611 322 639 338 692 c 0
 346 720 351 736 354 766 c 0
 354 770 365 760 375 750 c 0
 385 740 396 734 396 730 c 0
 393 701 387 683 378 654 c 0
 362 600 349 573 328 522 c 0
 305 466 294 435 274 378 c 0
 274 377 273 377 273 376 c 1
 295 391 315 404 342 420 c 0
 374 440 392 451 424 468 c 0
 466 491 492 503 532 530 c 0
 566 553 588 562 610 597 c 0
 634 635 632 657 627 702 c 0
 622 742 613 745 594 763 c 0
 575 781 567 798 526 810 c 0
 489 821 462 825 423 820 c 0
 381 815 355 814 317 796 c 0
 274 775 249 754 214 720 c 0
 177 684 166 652 134 610 c 0
 132 608 121 612 115 628 c 0
EndSplineSet
EndChar
